<mxfile host="app.diagrams.net" modified="2021-12-01T15:42:17.144Z" agent="5.0 (Windows NT 10.0; Win64; x64) AppleWebKit/537.36 (KHTML, like Gecko) Chrome/96.0.4664.45 Safari/537.36" etag="OoQ9jWsx-jzZ5ASeouT3" version="15.8.7" type="github">
  <diagram id="7Hj7jhrcodPvuh8SQKSv" name="第 1 页">
    <mxGraphModel dx="1693" dy="521" grid="1" gridSize="10" guides="1" tooltips="1" connect="1" arrows="1" fold="1" page="1" pageScale="1" pageWidth="827" pageHeight="1169" math="0" shadow="0">
      <root>
        <mxCell id="0" />
        <mxCell id="1" parent="0" />
        <mxCell id="Emcw0sT8N9YevTTXox21-2" value="&lt;font style=&quot;font-size: 18px&quot;&gt;&lt;b&gt;CPU&lt;/b&gt;&lt;/font&gt;" style="rounded=1;whiteSpace=wrap;html=1;strokeWidth=2;fillWeight=4;hachureGap=8;hachureAngle=45;fillColor=#d5e8d4;sketch=1;strokeColor=#82b366;" vertex="1" parent="1">
          <mxGeometry x="100" y="200" width="90" height="90" as="geometry" />
        </mxCell>
        <mxCell id="Emcw0sT8N9YevTTXox21-9" value="总线" style="edgeStyle=orthogonalEdgeStyle;rounded=0;orthogonalLoop=1;jettySize=auto;html=1;entryX=0;entryY=0.5;entryDx=0;entryDy=0;fontSize=18;endArrow=none;endFill=0;startArrow=none;startFill=0;strokeWidth=6;endSize=6;fillColor=#60a917;strokeColor=#2D7600;" edge="1" parent="1" source="Emcw0sT8N9YevTTXox21-3" target="Emcw0sT8N9YevTTXox21-4">
          <mxGeometry relative="1" as="geometry" />
        </mxCell>
        <mxCell id="Emcw0sT8N9YevTTXox21-3" value="&lt;span style=&quot;font-size: 18px&quot;&gt;&lt;b&gt;接口&lt;/b&gt;&lt;/span&gt;" style="rounded=1;whiteSpace=wrap;html=1;strokeWidth=2;fillWeight=4;hachureGap=8;hachureAngle=45;fillColor=#dae8fc;sketch=1;strokeColor=#6c8ebf;" vertex="1" parent="1">
          <mxGeometry x="400" y="200" width="90" height="90" as="geometry" />
        </mxCell>
        <mxCell id="Emcw0sT8N9YevTTXox21-23" style="edgeStyle=orthogonalEdgeStyle;rounded=0;orthogonalLoop=1;jettySize=auto;html=1;exitX=0;exitY=0;exitDx=0;exitDy=0;entryX=0.889;entryY=0;entryDx=0;entryDy=0;entryPerimeter=0;fontSize=18;startArrow=none;startFill=0;endArrow=open;endFill=0;endSize=6;strokeWidth=3;curved=1;" edge="1" parent="1" source="Emcw0sT8N9YevTTXox21-4" target="Emcw0sT8N9YevTTXox21-3">
          <mxGeometry relative="1" as="geometry">
            <Array as="points">
              <mxPoint x="640" y="150" />
              <mxPoint x="480" y="150" />
            </Array>
          </mxGeometry>
        </mxCell>
        <mxCell id="Emcw0sT8N9YevTTXox21-24" value="速率" style="edgeLabel;html=1;align=center;verticalAlign=middle;resizable=0;points=[];fontSize=18;" vertex="1" connectable="0" parent="Emcw0sT8N9YevTTXox21-23">
          <mxGeometry x="-0.1077" y="-3" relative="1" as="geometry">
            <mxPoint x="-14" as="offset" />
          </mxGeometry>
        </mxCell>
        <mxCell id="Emcw0sT8N9YevTTXox21-4" value="&lt;span style=&quot;font-size: 18px&quot;&gt;&lt;b&gt;设备&lt;/b&gt;&lt;/span&gt;" style="rounded=1;whiteSpace=wrap;html=1;strokeWidth=2;fillWeight=4;hachureGap=8;hachureAngle=45;fillColor=#f5f5f5;sketch=1;strokeColor=#666666;fontColor=#333333;" vertex="1" parent="1">
          <mxGeometry x="640" y="200" width="90" height="90" as="geometry" />
        </mxCell>
        <mxCell id="Emcw0sT8N9YevTTXox21-7" style="edgeStyle=orthogonalEdgeStyle;rounded=0;orthogonalLoop=1;jettySize=auto;html=1;fontSize=18;endArrow=open;endFill=0;" edge="1" parent="1" source="Emcw0sT8N9YevTTXox21-5" target="Emcw0sT8N9YevTTXox21-6">
          <mxGeometry relative="1" as="geometry" />
        </mxCell>
        <mxCell id="Emcw0sT8N9YevTTXox21-5" value="设备要给你计算机输入数据" style="text;html=1;strokeColor=none;fillColor=none;align=center;verticalAlign=middle;whiteSpace=wrap;rounded=0;fontSize=18;fontStyle=1" vertex="1" parent="1">
          <mxGeometry x="70" y="70" width="290" height="30" as="geometry" />
        </mxCell>
        <mxCell id="Emcw0sT8N9YevTTXox21-6" value="IO控制方式" style="text;html=1;strokeColor=none;fillColor=none;align=center;verticalAlign=middle;whiteSpace=wrap;rounded=0;fontSize=18;fontStyle=1" vertex="1" parent="1">
          <mxGeometry x="400" y="70" width="140" height="30" as="geometry" />
        </mxCell>
        <mxCell id="Emcw0sT8N9YevTTXox21-8" value="比如，键盘输入一个字符" style="text;html=1;strokeColor=none;fillColor=none;align=center;verticalAlign=middle;whiteSpace=wrap;rounded=0;fontSize=18;fontStyle=1" vertex="1" parent="1">
          <mxGeometry x="630" y="320" width="225" height="30" as="geometry" />
        </mxCell>
        <mxCell id="Emcw0sT8N9YevTTXox21-10" value="程序查询的方式" style="text;html=1;strokeColor=none;fillColor=none;align=center;verticalAlign=middle;whiteSpace=wrap;rounded=0;fontSize=18;fontStyle=1" vertex="1" parent="1">
          <mxGeometry x="-180" y="190" width="140" height="30" as="geometry" />
        </mxCell>
        <mxCell id="Emcw0sT8N9YevTTXox21-11" value="scanf(&quot;%d&quot;, &amp;amp;a);" style="text;html=1;strokeColor=none;fillColor=none;align=center;verticalAlign=middle;whiteSpace=wrap;rounded=0;fontSize=18;fontStyle=1" vertex="1" parent="1">
          <mxGeometry x="647.5" y="360" width="190" height="30" as="geometry" />
        </mxCell>
        <mxCell id="Emcw0sT8N9YevTTXox21-13" value="轮询，一直询问数据准备好了吗？" style="text;html=1;strokeColor=none;fillColor=none;align=center;verticalAlign=middle;whiteSpace=wrap;rounded=0;fontSize=18;fontStyle=1" vertex="1" parent="1">
          <mxGeometry x="-200" y="260" width="170" height="30" as="geometry" />
        </mxCell>
        <mxCell id="Emcw0sT8N9YevTTXox21-16" style="edgeStyle=orthogonalEdgeStyle;rounded=0;orthogonalLoop=1;jettySize=auto;html=1;fontSize=18;startArrow=none;startFill=0;endArrow=open;endFill=0;endSize=6;strokeWidth=3;" edge="1" parent="1" source="Emcw0sT8N9YevTTXox21-14" target="Emcw0sT8N9YevTTXox21-15">
          <mxGeometry relative="1" as="geometry" />
        </mxCell>
        <mxCell id="Emcw0sT8N9YevTTXox21-14" value="&lt;span style=&quot;font-size: 18px&quot;&gt;&lt;b&gt;字符&lt;/b&gt;&lt;/span&gt;" style="rounded=1;whiteSpace=wrap;html=1;strokeWidth=2;fillWeight=4;hachureGap=8;hachureAngle=45;fillColor=#dae8fc;sketch=1;strokeColor=#6c8ebf;" vertex="1" parent="1">
          <mxGeometry x="419" y="400" width="51" height="50" as="geometry" />
        </mxCell>
        <mxCell id="Emcw0sT8N9YevTTXox21-18" style="edgeStyle=orthogonalEdgeStyle;rounded=0;orthogonalLoop=1;jettySize=auto;html=1;fontSize=18;startArrow=none;startFill=0;endArrow=open;endFill=0;endSize=6;strokeWidth=3;" edge="1" parent="1" source="Emcw0sT8N9YevTTXox21-15" target="Emcw0sT8N9YevTTXox21-17">
          <mxGeometry relative="1" as="geometry" />
        </mxCell>
        <mxCell id="Emcw0sT8N9YevTTXox21-15" value="&lt;font style=&quot;font-size: 18px&quot;&gt;&lt;b&gt;CPU寄存器&lt;/b&gt;&lt;/font&gt;" style="rounded=1;whiteSpace=wrap;html=1;strokeWidth=2;fillWeight=4;hachureGap=8;hachureAngle=45;fillColor=#d5e8d4;sketch=1;strokeColor=#82b366;" vertex="1" parent="1">
          <mxGeometry x="135" y="400" width="120" height="50" as="geometry" />
        </mxCell>
        <mxCell id="Emcw0sT8N9YevTTXox21-17" value="&lt;font style=&quot;font-size: 18px&quot;&gt;&lt;b&gt;内存&lt;/b&gt;&lt;/font&gt;" style="rounded=1;whiteSpace=wrap;html=1;strokeWidth=2;fillWeight=4;hachureGap=8;hachureAngle=45;fillColor=#d5e8d4;sketch=1;strokeColor=#82b366;" vertex="1" parent="1">
          <mxGeometry x="-70" y="340" width="110" height="170" as="geometry" />
        </mxCell>
        <mxCell id="Emcw0sT8N9YevTTXox21-19" value="while(轮询) {&lt;br&gt;&lt;span style=&quot;white-space: pre&quot;&gt;	&lt;/span&gt;从IO接口中取走数据;&lt;br&gt;}" style="text;html=1;strokeColor=none;fillColor=none;align=left;verticalAlign=middle;whiteSpace=wrap;rounded=0;fontSize=18;fontStyle=1" vertex="1" parent="1">
          <mxGeometry x="340" y="510" width="270" height="100" as="geometry" />
        </mxCell>
        <mxCell id="Emcw0sT8N9YevTTXox21-20" value="" style="shape=curlyBracket;whiteSpace=wrap;html=1;rounded=1;flipH=1;fontSize=18;" vertex="1" parent="1">
          <mxGeometry x="610" y="510" width="20" height="120" as="geometry" />
        </mxCell>
        <mxCell id="Emcw0sT8N9YevTTXox21-21" value="查询是需要一定的时间开销的" style="text;html=1;strokeColor=none;fillColor=none;align=center;verticalAlign=middle;whiteSpace=wrap;rounded=0;fontSize=18;fontStyle=1" vertex="1" parent="1">
          <mxGeometry x="640" y="545" width="190" height="30" as="geometry" />
        </mxCell>
        <mxCell id="Emcw0sT8N9YevTTXox21-22" value="CPU的轮询需要在一定的频率内，否则就可能会出现数据丢失" style="text;html=1;strokeColor=none;fillColor=none;align=center;verticalAlign=middle;whiteSpace=wrap;rounded=0;fontSize=18;fontStyle=1" vertex="1" parent="1">
          <mxGeometry x="-80" y="130" width="290" height="60" as="geometry" />
        </mxCell>
        <mxCell id="Emcw0sT8N9YevTTXox21-28" style="edgeStyle=orthogonalEdgeStyle;curved=1;rounded=0;orthogonalLoop=1;jettySize=auto;html=1;entryX=1;entryY=0;entryDx=0;entryDy=0;fontSize=18;startArrow=none;startFill=0;endArrow=open;endFill=0;endSize=6;strokeWidth=3;" edge="1" parent="1" source="Emcw0sT8N9YevTTXox21-27" target="Emcw0sT8N9YevTTXox21-2">
          <mxGeometry relative="1" as="geometry" />
        </mxCell>
        <mxCell id="Emcw0sT8N9YevTTXox21-29" value="影响CPU介入的频率" style="edgeLabel;html=1;align=center;verticalAlign=middle;resizable=0;points=[];fontSize=18;" vertex="1" connectable="0" parent="Emcw0sT8N9YevTTXox21-28">
          <mxGeometry x="-0.0187" y="6" relative="1" as="geometry">
            <mxPoint as="offset" />
          </mxGeometry>
        </mxCell>
        <mxCell id="Emcw0sT8N9YevTTXox21-27" value="频率" style="text;html=1;align=center;verticalAlign=middle;resizable=0;points=[];autosize=1;strokeColor=none;fillColor=none;fontSize=18;fontStyle=1" vertex="1" parent="1">
          <mxGeometry x="420" y="115" width="50" height="30" as="geometry" />
        </mxCell>
        <mxCell id="Emcw0sT8N9YevTTXox21-31" style="edgeStyle=orthogonalEdgeStyle;curved=1;rounded=0;orthogonalLoop=1;jettySize=auto;html=1;exitX=0;exitY=0;exitDx=0;exitDy=0;fontSize=18;startArrow=none;startFill=0;endArrow=open;endFill=0;endSize=6;strokeWidth=3;" edge="1" parent="1" source="Emcw0sT8N9YevTTXox21-30" target="Emcw0sT8N9YevTTXox21-27">
          <mxGeometry relative="1" as="geometry">
            <Array as="points">
              <mxPoint x="360" y="330" />
              <mxPoint x="360" y="180" />
              <mxPoint x="439" y="180" />
            </Array>
          </mxGeometry>
        </mxCell>
        <mxCell id="Emcw0sT8N9YevTTXox21-30" value="&lt;span style=&quot;font-size: 18px&quot;&gt;&lt;b&gt;缓冲区大小&lt;/b&gt;&lt;/span&gt;" style="rounded=1;whiteSpace=wrap;html=1;strokeWidth=2;fillWeight=4;hachureGap=8;hachureAngle=45;fillColor=#dae8fc;sketch=1;strokeColor=#6c8ebf;" vertex="1" parent="1">
          <mxGeometry x="395" y="330" width="100" height="50" as="geometry" />
        </mxCell>
        <mxCell id="Emcw0sT8N9YevTTXox21-32" value="程序中断的方式" style="text;html=1;strokeColor=none;fillColor=none;align=center;verticalAlign=middle;whiteSpace=wrap;rounded=0;fontSize=18;fontStyle=1" vertex="1" parent="1">
          <mxGeometry x="-185" y="700" width="140" height="30" as="geometry" />
        </mxCell>
        <mxCell id="Emcw0sT8N9YevTTXox21-37" value="&lt;font style=&quot;font-size: 18px&quot;&gt;&lt;b&gt;CPU&lt;/b&gt;&lt;/font&gt;" style="rounded=1;whiteSpace=wrap;html=1;strokeWidth=2;fillWeight=4;hachureGap=8;hachureAngle=45;fillColor=#d5e8d4;sketch=1;strokeColor=#82b366;" vertex="1" parent="1">
          <mxGeometry x="100" y="795" width="90" height="90" as="geometry" />
        </mxCell>
        <mxCell id="Emcw0sT8N9YevTTXox21-38" value="总线" style="edgeStyle=orthogonalEdgeStyle;rounded=0;orthogonalLoop=1;jettySize=auto;html=1;entryX=0;entryY=0.5;entryDx=0;entryDy=0;fontSize=18;endArrow=none;endFill=0;startArrow=none;startFill=0;strokeWidth=6;endSize=6;fillColor=#60a917;strokeColor=#2D7600;" edge="1" parent="1" source="Emcw0sT8N9YevTTXox21-39" target="Emcw0sT8N9YevTTXox21-42">
          <mxGeometry relative="1" as="geometry" />
        </mxCell>
        <mxCell id="Emcw0sT8N9YevTTXox21-39" value="&lt;span style=&quot;font-size: 18px&quot;&gt;&lt;b&gt;接口&lt;/b&gt;&lt;/span&gt;" style="rounded=1;whiteSpace=wrap;html=1;strokeWidth=2;fillWeight=4;hachureGap=8;hachureAngle=45;fillColor=#dae8fc;sketch=1;strokeColor=#6c8ebf;" vertex="1" parent="1">
          <mxGeometry x="400" y="795" width="90" height="90" as="geometry" />
        </mxCell>
        <mxCell id="Emcw0sT8N9YevTTXox21-40" style="edgeStyle=orthogonalEdgeStyle;rounded=0;orthogonalLoop=1;jettySize=auto;html=1;exitX=0;exitY=0;exitDx=0;exitDy=0;entryX=0.889;entryY=0;entryDx=0;entryDy=0;entryPerimeter=0;fontSize=18;startArrow=none;startFill=0;endArrow=open;endFill=0;endSize=6;strokeWidth=3;curved=1;" edge="1" parent="1" source="Emcw0sT8N9YevTTXox21-42" target="Emcw0sT8N9YevTTXox21-39">
          <mxGeometry relative="1" as="geometry">
            <Array as="points">
              <mxPoint x="640" y="745" />
              <mxPoint x="480" y="745" />
            </Array>
          </mxGeometry>
        </mxCell>
        <mxCell id="Emcw0sT8N9YevTTXox21-41" value="速率" style="edgeLabel;html=1;align=center;verticalAlign=middle;resizable=0;points=[];fontSize=18;" vertex="1" connectable="0" parent="Emcw0sT8N9YevTTXox21-40">
          <mxGeometry x="-0.1077" y="-3" relative="1" as="geometry">
            <mxPoint x="-14" as="offset" />
          </mxGeometry>
        </mxCell>
        <mxCell id="Emcw0sT8N9YevTTXox21-42" value="&lt;span style=&quot;font-size: 18px&quot;&gt;&lt;b&gt;设备&lt;/b&gt;&lt;/span&gt;" style="rounded=1;whiteSpace=wrap;html=1;strokeWidth=2;fillWeight=4;hachureGap=8;hachureAngle=45;fillColor=#f5f5f5;sketch=1;strokeColor=#666666;fontColor=#333333;" vertex="1" parent="1">
          <mxGeometry x="640" y="795" width="90" height="90" as="geometry" />
        </mxCell>
        <mxCell id="Emcw0sT8N9YevTTXox21-44" style="edgeStyle=orthogonalEdgeStyle;curved=1;rounded=0;orthogonalLoop=1;jettySize=auto;html=1;entryX=0.75;entryY=0;entryDx=0;entryDy=0;fontSize=18;startArrow=none;startFill=0;endArrow=open;endFill=0;endSize=6;strokeWidth=3;" edge="1" parent="1" source="Emcw0sT8N9YevTTXox21-43" target="Emcw0sT8N9YevTTXox21-37">
          <mxGeometry relative="1" as="geometry" />
        </mxCell>
        <mxCell id="Emcw0sT8N9YevTTXox21-43" value="频率" style="text;html=1;align=center;verticalAlign=middle;resizable=0;points=[];autosize=1;strokeColor=none;fillColor=none;fontSize=18;fontStyle=1" vertex="1" parent="1">
          <mxGeometry x="419" y="680" width="50" height="30" as="geometry" />
        </mxCell>
        <mxCell id="Emcw0sT8N9YevTTXox21-46" style="edgeStyle=orthogonalEdgeStyle;curved=1;rounded=0;orthogonalLoop=1;jettySize=auto;html=1;exitX=0;exitY=0;exitDx=0;exitDy=0;fontSize=18;startArrow=none;startFill=0;endArrow=open;endFill=0;endSize=6;strokeWidth=3;" edge="1" parent="1" source="Emcw0sT8N9YevTTXox21-45" target="Emcw0sT8N9YevTTXox21-43">
          <mxGeometry relative="1" as="geometry">
            <Array as="points">
              <mxPoint x="380" y="940" />
              <mxPoint x="380" y="760" />
              <mxPoint x="445" y="760" />
            </Array>
          </mxGeometry>
        </mxCell>
        <mxCell id="Emcw0sT8N9YevTTXox21-45" value="&lt;span style=&quot;font-size: 18px&quot;&gt;&lt;b&gt;缓冲区大小&lt;/b&gt;&lt;/span&gt;" style="rounded=1;whiteSpace=wrap;html=1;strokeWidth=2;fillWeight=4;hachureGap=8;hachureAngle=45;fillColor=#dae8fc;sketch=1;strokeColor=#6c8ebf;" vertex="1" parent="1">
          <mxGeometry x="395" y="940" width="100" height="50" as="geometry" />
        </mxCell>
        <mxCell id="Emcw0sT8N9YevTTXox21-47" value="总线" style="edgeStyle=orthogonalEdgeStyle;rounded=0;orthogonalLoop=1;jettySize=auto;html=1;entryX=0;entryY=0.5;entryDx=0;entryDy=0;fontSize=18;endArrow=none;endFill=0;startArrow=none;startFill=0;strokeWidth=6;endSize=6;fillColor=#60a917;strokeColor=#2D7600;exitX=1;exitY=0.5;exitDx=0;exitDy=0;" edge="1" parent="1" source="Emcw0sT8N9YevTTXox21-37" target="Emcw0sT8N9YevTTXox21-39">
          <mxGeometry relative="1" as="geometry">
            <mxPoint x="500" y="850" as="sourcePoint" />
            <mxPoint x="650" y="850" as="targetPoint" />
          </mxGeometry>
        </mxCell>
        <mxCell id="Emcw0sT8N9YevTTXox21-48" value="&lt;b&gt;缓冲区满的话，那么接口发送中断信号&lt;/b&gt;" style="text;html=1;align=center;verticalAlign=middle;resizable=0;points=[];autosize=1;strokeColor=none;fillColor=none;fontSize=18;" vertex="1" parent="1">
          <mxGeometry x="284" y="1000" width="320" height="30" as="geometry" />
        </mxCell>
        <mxCell id="Emcw0sT8N9YevTTXox21-52" value="" style="shape=table;startSize=0;container=1;collapsible=0;childLayout=tableLayout;fontSize=18;comic=1;rounded=0;shadow=1;sketch=0;fixedRows=0;resizeLast=0;strokeOpacity=100;spacingLeft=0;" vertex="1" parent="1">
          <mxGeometry x="-155" y="880" width="215" height="425" as="geometry" />
        </mxCell>
        <mxCell id="Emcw0sT8N9YevTTXox21-53" value="" style="shape=partialRectangle;collapsible=0;dropTarget=0;pointerEvents=0;fillColor=none;top=0;left=0;bottom=0;right=0;points=[[0,0.5],[1,0.5]];portConstraint=eastwest;fontSize=18;" vertex="1" parent="Emcw0sT8N9YevTTXox21-52">
          <mxGeometry width="215" height="116" as="geometry" />
        </mxCell>
        <mxCell id="Emcw0sT8N9YevTTXox21-54" value="&lt;span style=&quot;font-weight: 700&quot;&gt;&amp;nbsp; &amp;nbsp;中断响应程序：&lt;br&gt;&amp;nbsp; &amp;nbsp;CPU响应中断信号&lt;/span&gt;" style="shape=partialRectangle;html=1;whiteSpace=wrap;connectable=0;overflow=hidden;fillColor=none;top=0;left=0;bottom=0;right=0;pointerEvents=1;fontSize=18;align=left;comic=1;" vertex="1" parent="Emcw0sT8N9YevTTXox21-53">
          <mxGeometry width="215" height="116" as="geometry">
            <mxRectangle width="215" height="116" as="alternateBounds" />
          </mxGeometry>
        </mxCell>
        <mxCell id="Emcw0sT8N9YevTTXox21-55" value="" style="shape=partialRectangle;collapsible=0;dropTarget=0;pointerEvents=0;fillColor=none;top=0;left=0;bottom=0;right=0;points=[[0,0.5],[1,0.5]];portConstraint=eastwest;fontSize=18;" vertex="1" parent="Emcw0sT8N9YevTTXox21-52">
          <mxGeometry y="116" width="215" height="309" as="geometry" />
        </mxCell>
        <mxCell id="Emcw0sT8N9YevTTXox21-56" value="&lt;span style=&quot;font-weight: 700&quot;&gt;&amp;nbsp; &amp;nbsp;中断服务程序：&lt;br&gt;&amp;nbsp; &amp;nbsp;CPU处理中断，取走缓冲区数据&lt;/span&gt;" style="shape=partialRectangle;html=1;whiteSpace=wrap;connectable=0;overflow=hidden;fillColor=none;top=0;left=0;bottom=0;right=0;pointerEvents=1;fontSize=18;align=left;" vertex="1" parent="Emcw0sT8N9YevTTXox21-55">
          <mxGeometry width="215" height="309" as="geometry">
            <mxRectangle width="215" height="309" as="alternateBounds" />
          </mxGeometry>
        </mxCell>
        <mxCell id="Emcw0sT8N9YevTTXox21-57" value="" style="shape=curlyBracket;whiteSpace=wrap;html=1;rounded=1;shadow=1;comic=1;sketch=0;fontSize=18;" vertex="1" parent="1">
          <mxGeometry x="-205" y="1000" width="20" height="300" as="geometry" />
        </mxCell>
        <mxCell id="Emcw0sT8N9YevTTXox21-58" value="中断处理时间" style="text;html=1;align=center;verticalAlign=middle;resizable=0;points=[];autosize=1;strokeColor=none;fillColor=none;fontSize=18;fontStyle=1" vertex="1" parent="1">
          <mxGeometry x="-340" y="1135" width="120" height="30" as="geometry" />
        </mxCell>
        <mxCell id="Emcw0sT8N9YevTTXox21-59" value="DMA方式" style="text;html=1;strokeColor=none;fillColor=none;align=center;verticalAlign=middle;whiteSpace=wrap;rounded=0;fontSize=18;fontStyle=1" vertex="1" parent="1">
          <mxGeometry x="-190" y="1430" width="140" height="30" as="geometry" />
        </mxCell>
        <mxCell id="Emcw0sT8N9YevTTXox21-70" style="edgeStyle=orthogonalEdgeStyle;curved=1;rounded=0;orthogonalLoop=1;jettySize=auto;html=1;exitX=0.75;exitY=0;exitDx=0;exitDy=0;entryX=-0.031;entryY=0.208;entryDx=0;entryDy=0;entryPerimeter=0;fontSize=18;fontColor=#000000;startArrow=none;startFill=0;endArrow=open;endFill=0;endSize=6;strokeWidth=3;dashed=1;" edge="1" parent="1" source="Emcw0sT8N9YevTTXox21-60" target="Emcw0sT8N9YevTTXox21-62">
          <mxGeometry relative="1" as="geometry" />
        </mxCell>
        <mxCell id="Emcw0sT8N9YevTTXox21-71" value="① 预处理信息" style="edgeLabel;html=1;align=center;verticalAlign=middle;resizable=0;points=[];fontSize=18;fontColor=#000000;fontStyle=1" vertex="1" connectable="0" parent="Emcw0sT8N9YevTTXox21-70">
          <mxGeometry x="0.043" relative="1" as="geometry">
            <mxPoint x="1" as="offset" />
          </mxGeometry>
        </mxCell>
        <mxCell id="Emcw0sT8N9YevTTXox21-60" value="&lt;font style=&quot;font-size: 18px&quot;&gt;&lt;b&gt;CPU&lt;/b&gt;&lt;/font&gt;" style="rounded=1;whiteSpace=wrap;html=1;strokeWidth=2;fillWeight=4;hachureGap=8;hachureAngle=45;fillColor=#d5e8d4;sketch=1;strokeColor=#82b366;" vertex="1" parent="1">
          <mxGeometry x="-90" y="1520" width="90" height="90" as="geometry" />
        </mxCell>
        <mxCell id="Emcw0sT8N9YevTTXox21-61" value="总线" style="edgeStyle=orthogonalEdgeStyle;rounded=0;orthogonalLoop=1;jettySize=auto;html=1;entryX=0;entryY=0.5;entryDx=0;entryDy=0;fontSize=18;endArrow=none;endFill=0;startArrow=none;startFill=0;strokeWidth=6;endSize=6;fillColor=#60a917;strokeColor=#2D7600;curved=1;" edge="1" parent="1" source="Emcw0sT8N9YevTTXox21-62" target="Emcw0sT8N9YevTTXox21-63">
          <mxGeometry relative="1" as="geometry" />
        </mxCell>
        <mxCell id="Emcw0sT8N9YevTTXox21-80" style="edgeStyle=orthogonalEdgeStyle;curved=1;rounded=0;orthogonalLoop=1;jettySize=auto;html=1;exitX=1;exitY=1;exitDx=0;exitDy=0;entryX=0.5;entryY=1;entryDx=0;entryDy=0;dashed=1;fontSize=18;fontColor=#000000;startArrow=none;startFill=0;endArrow=open;endFill=0;endSize=6;strokeWidth=3;" edge="1" parent="1" source="Emcw0sT8N9YevTTXox21-62" target="Emcw0sT8N9YevTTXox21-60">
          <mxGeometry relative="1" as="geometry">
            <Array as="points">
              <mxPoint x="670" y="1700" />
              <mxPoint x="670" y="2030" />
              <mxPoint x="-45" y="2030" />
            </Array>
          </mxGeometry>
        </mxCell>
        <mxCell id="Emcw0sT8N9YevTTXox21-85" value="&lt;span style=&quot;color: rgb(0 , 0 , 0) ; font-family: &amp;#34;helvetica&amp;#34; ; font-size: 18px ; font-style: normal ; font-weight: 700 ; letter-spacing: normal ; text-align: center ; text-indent: 0px ; text-transform: none ; word-spacing: 0px ; background-color: rgb(248 , 249 , 250) ; display: inline ; float: none&quot;&gt;② 传完一整块后，就会向CPU发送中断信号&lt;/span&gt;" style="edgeLabel;html=1;align=center;verticalAlign=middle;resizable=0;points=[];fontSize=18;fontColor=#000000;" vertex="1" connectable="0" parent="Emcw0sT8N9YevTTXox21-80">
          <mxGeometry x="-0.0192" y="-4" relative="1" as="geometry">
            <mxPoint x="-28" y="-6" as="offset" />
          </mxGeometry>
        </mxCell>
        <mxCell id="Emcw0sT8N9YevTTXox21-62" value="&lt;span style=&quot;font-size: 18px&quot;&gt;&lt;b&gt;DMA接口&lt;/b&gt;&lt;/span&gt;" style="rounded=1;whiteSpace=wrap;html=1;strokeWidth=2;fillWeight=4;hachureGap=8;hachureAngle=45;fillColor=#dae8fc;sketch=1;strokeColor=#6c8ebf;" vertex="1" parent="1">
          <mxGeometry x="390" y="1450" width="130" height="250" as="geometry" />
        </mxCell>
        <mxCell id="Emcw0sT8N9YevTTXox21-78" style="edgeStyle=orthogonalEdgeStyle;curved=1;rounded=0;orthogonalLoop=1;jettySize=auto;html=1;exitX=0;exitY=0.75;exitDx=0;exitDy=0;entryX=1.015;entryY=0.6;entryDx=0;entryDy=0;entryPerimeter=0;dashed=1;fontSize=18;fontColor=#000000;startArrow=none;startFill=0;endArrow=open;endFill=0;endSize=6;strokeWidth=3;" edge="1" parent="1" source="Emcw0sT8N9YevTTXox21-63" target="Emcw0sT8N9YevTTXox21-62">
          <mxGeometry relative="1" as="geometry" />
        </mxCell>
        <mxCell id="Emcw0sT8N9YevTTXox21-63" value="&lt;span style=&quot;font-size: 18px&quot;&gt;&lt;b&gt;DMA设备&lt;/b&gt;&lt;/span&gt;" style="rounded=1;whiteSpace=wrap;html=1;strokeWidth=2;fillWeight=4;hachureGap=8;hachureAngle=45;fillColor=#f5f5f5;sketch=1;strokeColor=#666666;fontColor=#333333;" vertex="1" parent="1">
          <mxGeometry x="640" y="1520" width="90" height="90" as="geometry" />
        </mxCell>
        <mxCell id="Emcw0sT8N9YevTTXox21-64" value="总线" style="edgeStyle=orthogonalEdgeStyle;rounded=0;orthogonalLoop=1;jettySize=auto;html=1;entryX=0;entryY=0.5;entryDx=0;entryDy=0;fontSize=18;endArrow=none;endFill=0;startArrow=none;startFill=0;strokeWidth=6;endSize=6;fillColor=#60a917;strokeColor=#2D7600;exitX=1;exitY=0.5;exitDx=0;exitDy=0;curved=1;" edge="1" parent="1" source="Emcw0sT8N9YevTTXox21-60" target="Emcw0sT8N9YevTTXox21-62">
          <mxGeometry relative="1" as="geometry">
            <mxPoint x="500" y="1575" as="sourcePoint" />
            <mxPoint x="650" y="1575" as="targetPoint" />
          </mxGeometry>
        </mxCell>
        <mxCell id="Emcw0sT8N9YevTTXox21-65" value="&lt;font style=&quot;font-size: 18px&quot;&gt;&lt;b&gt;&lt;br&gt;&lt;br&gt;&lt;br&gt;&lt;br&gt;&lt;br&gt;&lt;br&gt;&lt;br&gt;&lt;br&gt;&lt;br&gt;&lt;br&gt;内存&lt;/b&gt;&lt;/font&gt;" style="rounded=1;whiteSpace=wrap;html=1;strokeWidth=2;fillWeight=4;hachureGap=8;hachureAngle=45;fillColor=#d5e8d4;sketch=1;strokeColor=#82b366;" vertex="1" parent="1">
          <mxGeometry x="135" y="1650" width="140" height="270" as="geometry" />
        </mxCell>
        <mxCell id="Emcw0sT8N9YevTTXox21-66" value="&lt;b&gt;磁盘&lt;/b&gt;" style="text;html=1;align=center;verticalAlign=middle;resizable=0;points=[];autosize=1;strokeColor=none;fillColor=none;fontSize=18;" vertex="1" parent="1">
          <mxGeometry x="660" y="1650" width="50" height="30" as="geometry" />
        </mxCell>
        <mxCell id="Emcw0sT8N9YevTTXox21-72" style="edgeStyle=orthogonalEdgeStyle;curved=1;rounded=0;orthogonalLoop=1;jettySize=auto;html=1;exitX=0;exitY=0.5;exitDx=0;exitDy=0;entryX=1.009;entryY=0.391;entryDx=0;entryDy=0;entryPerimeter=0;fontSize=18;fontColor=#000000;startArrow=none;startFill=0;endArrow=open;endFill=0;endSize=6;strokeWidth=3;dashed=1;" edge="1" parent="1" source="Emcw0sT8N9YevTTXox21-67" target="Emcw0sT8N9YevTTXox21-65">
          <mxGeometry relative="1" as="geometry" />
        </mxCell>
        <mxCell id="Emcw0sT8N9YevTTXox21-67" value="&lt;b&gt;&lt;font&gt;缓冲区&lt;br&gt;&lt;/font&gt;&lt;/b&gt;" style="rounded=1;whiteSpace=wrap;html=1;strokeWidth=2;fillWeight=4;hachureGap=8;hachureAngle=45;fillColor=#FFFF00;sketch=1;shadow=1;comic=1;fontSize=18;fontColor=#000000;" vertex="1" parent="1">
          <mxGeometry x="415" y="1620" width="75" height="60" as="geometry" />
        </mxCell>
        <mxCell id="Emcw0sT8N9YevTTXox21-68" value="缓冲区一个字一个字接收" style="text;html=1;align=center;verticalAlign=middle;resizable=0;points=[];autosize=1;strokeColor=none;fillColor=none;fontSize=18;fontColor=#000000;fontStyle=1" vertex="1" parent="1">
          <mxGeometry x="350" y="1724" width="210" height="30" as="geometry" />
        </mxCell>
        <mxCell id="Emcw0sT8N9YevTTXox21-69" value="同时就会把这一个字搞到内存里面" style="text;html=1;align=center;verticalAlign=middle;resizable=0;points=[];autosize=1;strokeColor=none;fillColor=none;fontSize=18;fontColor=#000000;fontStyle=1" vertex="1" parent="1">
          <mxGeometry x="310" y="1770" width="290" height="30" as="geometry" />
        </mxCell>
        <mxCell id="Emcw0sT8N9YevTTXox21-74" value="&lt;b&gt;&lt;font&gt;字&lt;br&gt;&lt;/font&gt;&lt;/b&gt;" style="rounded=1;whiteSpace=wrap;html=1;strokeWidth=2;fillWeight=4;hachureGap=8;hachureAngle=45;fillColor=#FFFF00;sketch=1;shadow=1;comic=1;fontSize=18;fontColor=#000000;" vertex="1" parent="1">
          <mxGeometry x="164.37" y="1660" width="81.25" height="56" as="geometry" />
        </mxCell>
        <mxCell id="Emcw0sT8N9YevTTXox21-76" value="&lt;b&gt;&lt;font&gt;字&lt;br&gt;&lt;/font&gt;&lt;/b&gt;" style="rounded=1;whiteSpace=wrap;html=1;strokeWidth=2;fillWeight=4;hachureGap=8;hachureAngle=45;fillColor=#FFFF00;sketch=1;shadow=1;comic=1;fontSize=18;fontColor=#000000;" vertex="1" parent="1">
          <mxGeometry x="164.38" y="1730" width="81.25" height="56" as="geometry" />
        </mxCell>
        <mxCell id="Emcw0sT8N9YevTTXox21-77" value="&lt;b&gt;&lt;font&gt;字&lt;br&gt;&lt;/font&gt;&lt;/b&gt;" style="rounded=1;whiteSpace=wrap;html=1;strokeWidth=2;fillWeight=4;hachureGap=8;hachureAngle=45;fillColor=#FFFF00;sketch=1;shadow=1;comic=1;fontSize=18;fontColor=#000000;" vertex="1" parent="1">
          <mxGeometry x="164.37" y="1800" width="81.25" height="56" as="geometry" />
        </mxCell>
        <mxCell id="Emcw0sT8N9YevTTXox21-87" value="③ 后处理" style="text;html=1;align=center;verticalAlign=middle;resizable=0;points=[];autosize=1;strokeColor=none;fillColor=none;fontSize=18;fontColor=#000000;fontStyle=1" vertex="1" parent="1">
          <mxGeometry x="-205" y="1550" width="90" height="30" as="geometry" />
        </mxCell>
        <mxCell id="Emcw0sT8N9YevTTXox21-88" value="" style="shape=image;verticalLabelPosition=bottom;labelBackgroundColor=#ffffff;verticalAlign=top;aspect=fixed;imageAspect=0;image=data:image/png,iVBORw0KGgoAAAANSUhEUgAAATIAAAGvCAYAAADYPllYAAAAAXNSR0IArs4c6QAAAARnQU1BAACxjwv8YQUAAAAJcEhZcwAADsMAAA7DAcdvqGQAAHfBSURBVHhe7b0JvBXVle+/jdEYh0CIhAaJYppGxG6HiGk7PgFNbAZBBOy2mTQq7RAiMmkroIABMshgNP9ElMQYpmdHUIEIxBcFDIlPMA55ItLagCEQHIi2YzTKv767at27b90659QZ7qmqc9b3c+tzaty1q27tX6299qq9D9jvYRRFUTLMJ4JfRVGUzKJCpihK5lEhUxQl86iQKYqSeVTI6pSXX37ZdO3aNVhSlGyjrZZ1zAEHHGD036/UAtW3yN7fZcw72/xJSYy33347mFOU7NPyFtlH7xnzxmPGvP6fnoj9OFjpcPB5xhz+NWM+29uYw7oEK5WW5t133zWHHXaYWmRKTdByQoaAvb7amD8NCVbE4LCJxhx1jTGHdAxWKC2FCplSS7SMkFF9fHlatAUWh6PWGvO5fw4WlJZCfWRKrVB5Hxki9tLg0kUM/uhVM3fdHiwolebJJ5+0rZbA79atW+28omSVghbZa6+9Znbu3BksFeCj972SMcGYv/7fYEUj27wkOrYz5tBDvGqNt5v8vvm2MQd9snEdE3z8saeyfzPXmCO622qQTO+8846/gwdVI3DXVQI515FHHmmXcYwffvjhdp77Iev37Nljpk6dauezBOJ1xRVXmPfff9+0adPGLFy40Bx66KHBVkXJHgWFbO7cufZBb926dbAmD3/9L88S+2OwkJs9rxlzuFdujvCmTkcZ8/ob3ryvSWb3K/4v6z/X+jNmz4df9ZY+bbp06WLeeust89FHHzXkheUjjjii4VcIL7vk2xaFpO/Svn17K2KdOnUyF198cbA2W5x33nnm1FNPNdu2bTOLFy8O1ipKNqmcj4xwipeOCxbyc+d9xpzazZ8K0uY2z5S7OlhQKsXIkSNN586dzYsvvmhfVIqSZSrnI/vz2mCmMFt3eNWbPwULhdg3xpgP9wULSqWgKomlecwxxwRrFCW7VE7I3oz/Vn9yizGvFqNN/7M5mFEqBdVKnP5HH310sEZRsktlhIxq5UebgoV4PPa7YCYOb6uQVRosMYQMQVOUrFMZIfvw1WCmMLROvvpnY157I1gRh796BygV5fjjj9eqpVIzVEbIPtgbzBTm+f82pl0bX8xi887sYEapFFQpaf2VUBJFyTKVabV8ZXnsT5EW/8KY5b/yLbP5N3oFqn2woRAnagR6pSGWbP78+cFS+RB7V0o8mhwnv1R527Zta0X2zTffNLt377YWJPFvbH/11fg1ABfiDuN2XUSQMGJfyvUo1afqQjZrgR/0isO/zxnGDD832FCIFhAyCg6FWR5Wgl337dtnY9ak0FCY3IBYKWxuoDCFDtgmwbkUGnceSgncddOJwg3QFcgHk3DIIYeYdu3ameeff97uy7XhG9u7d2+z6wLOiVi4hdi9B1G4+XTTKgTHkSc36JrqruSfoF3yD9IwQf7zNVJwT5hEiCQ/COTmzfH8rUOGDLH3CwGdNGmS+hJTTiJCdvwXvYf9Pa9ge9PlFwQbCtFCFln37t2tVUKB4mGnAEeJhxQ4CoVYBB06dDCtWrWy88A2ET4KoOwfLtSyLmqb0nLwv44rZALiR8zd5MmTzfDhw4O1StqoupABAbEQW8SgBYWs2IdbyR68XHr16lXS/5oXDs/JjTfeaIYOHRqsVdJE5eLIMggPqFIf5KsWFwKrec2aNWbixIn6gX1KqWsh02qdEhf8bdddd5259957gzVKmqhrIVOUYvjXf/1Xc/fddwdLSppQIasBaMVzWbt2bbN1YahWU1Wida8Qt956q+0lw4XjOU94fVrBR1Yu9HoiDThKulAhqwGWL19u7r///mDJF55CsVZUq9etW5ezr7k777zTThRawhAISeEcdPkza9YsM2XKFPPYY49lRsgqBWEY3A8lXaizvwYYO3asFRXg9/LLL7exWGFrCyEinACHNb/APWCefRFAsVyIjSOGaty4cTYtBIv9CEuhMNNP3YwZM0z//v3t/mmnHGe/kn7UIsswCBIBvVhOCMxZZ51lq3tYWYgS8y4zZ860v1hrIuL8ImLsSzourO/Tp4+d57tMBBNcgcySRRYWdqV20DiyGokjo8faYcOGmUcffTRY05zwtSJ8s2fPbohaJ+BTeotdv369rXrCypUrzT/8wz+YHTt22DgqBI+YLLHqWIcVmHYqMdgKLw6uVSP900ViFllRvV+0IIWc4mkGa0omvkeUdVge/CI4rhVCdZH1LnyxIPB5lvCJT3zCnH766Wb06NE2jW9+85sNIollhwB+/PHHdl0WRAyoKiu1SWJCJoOMJE2+b/bSDOJC9XHRokV2Yp7xBRAvnP+sc0UKaHFju0xYcTLP8a7IMc9EOmeeeaatQvKpDnDuQt87phF10tcuiQjZYZ/2HqrtwYJSEogSHzNjDTEhLCtWrLDiI+uoKrKfQHUIP5dsJ5yAfZhnvdsThoQZMNHCSfVxxIgRVsToQYLtrrWXBeTjfqX2SMwia/vZYEYpG1oje/fuHSz5LZdRiLM+F+EubrBg3GM4B34xBBFxc0UyC+iXHLVLIkJGrxdFdazYgmTZRwaIGMKFdQb80gLpxpWVAoJF66dUUadPn24d3VQzhazfO6V2SETIZAzLNEB3O1mFWK5nn33W/roQ33XffffZVsrwtrgMGDDAfO9737PVTtLAMsMHJxYa8WYdO3a081lB+jVTao9EhOytd4w5/thgIWGyVhgFLK5+/frlHOmcMAp8XuPHjw/WNAeRytWSh/+MScDqu/nmm4Ml78H5xCfMlVdeGSxlg127dgVzpYPPUEkfiQhZ2zbpCb/ImsNaGDRoUMFumwvFOuHAj+s3IoLf3Zd5t5qZBSrhI1M/WzpJRMjoHTYtZM1hrZROVkNtlMIkEtnPACSEX8z4ZrAiDi0U2d+pUyezbNmyYKkpEnpAvJVbzRLwE1HFAnlTY+FJ6ALz7nq3+2y3O226zCag1V0XF8ljISQ/FGYc+YQitGnTpomPkO1YeRKxL8i+VM2KyV/cvLnIMe6xzLvrmaRLciBPElqR72N5PukqtxcMjexPJ4kI2f2PGLNmoz+KUmxaSMgkyBMoKDzo7gfGbgESpIAJsk8UFDaJuQoXOJk/6KCDzIcfftiQDvtLXkQo3XMwspA7VoDA9nB+5ZgwfAh+zTXXmAsuuCDSUpF8A62XOPr53pI8sz/XA+Sb/HM+EXDOSdQ/Isk8+8o2dx/W88sUvu8g+7mExZ78uOLFS4H8AMeD3M+o9IpFhSydJCJk6zcbs2R1OoSsngl/a6kURoUsnSTiIwuMDCVhsLAUpRZQSVGUIpEqq5IeEhGytHwwXu+U6/hWlLSgFlkdE9USq+SHxoZyGwyUyqNCVofQWkjkPy2RfC9Z7neZ9YS0uirpQoWsDqEwMkYjLW8Mb6aBovEhFIXwFyVdJCJkafk8qZ45++yzbaslgbgaSlAcUTF8SrKos79OISBWAlyV+HC/JBhYSQ+JCRm9xCrJIb1eqOO6OOQLASVdJOYjo3NFJTmoTvJNpQ7IURz4F4v9HlZpedTZX6fwcTgDiqijX6kFVMjqGKwydfQXhwYRp5NEhOzd7PYuXVMQRyZd4SjxCPfQUTYfvWfMO9vSPZHHlJNI7xeP/c6YRb/Q3i/C3cq4ywSq0h0NTf2sp6WM7mrc/cNd2oCsi9oWhvEsGeKtGId/OM9AXlkn62X8SGkRFec4/iUGAaa1FN+c7Cd5DXfJUwg3L9KSyDlywT4ySEupcM+AHjBK5o2Nxry53jPvHvBEYlOwMuUceJqn4ucb06qnMa3PCFamh0SE7Mkt3gOxLB1C1rdvXxvkSGF0C75YKqyTjg+phlEYKEAUGAqRFFK3ULnrXdz17jx9d5XzpkcUyD+iJ/2auX2G0S8YHSNyTrfAS35ZJ/PyGyZXP21xyCeqYfEiLMSFfHJtYYGSexbOh9uHmyDbGYR4yxbv4SsDhIzrYTzQovmfp43ZPdWYD1YEKzLKwecZ02G6MZ85OViRPHVvkTHS0ObNm4MlpZapxP+6JIuMqtmeBcbsGxOsqBHa3GZM+1GetZZ8LJU6+5W6QSzgqoKIvXR17YkYcE1cWwp8aIkImVcrUJSqE7cqXFGwxN7/cbBQg3BtXGPCJCJk2kOskgSVsMjw6eGziwU+sVq0xMJwjVxrgiQiKRp+URxTpkxpaGRwEcd9FBQ2GjLy7ePCOcIFlPPhIM8lAPiLxGeUBbDIyhWz3r17m+XLlwdLBcCxXy8kfK2JCNmRrYMZpSAIEZ8SUQiHDBnSIB5MLEtfYrLf2rVr7URh4xhGCF+1apVdRx9kjBrFPEyfPr3heFoOaelcunSpmTVrlhU2fmlFzFclY6g8gTxI2rUK94LWa+5lXgixaMHWyTg9yLzc+K+JDemWcpy9Vq45IRKr5KVpkN40s2jRIhvrBQgNrWUy8ZmRROZTwAg9IBSDUAUEZebMmQ3R+0yEDMyfP99aFQJpypB4HIMwEY7CSOYzZsywv/lAPLHamBBPjo1rBSZBJaqX3NfJkyfnv07ixByohdBaT+gRo4jNWhCEId3XdBo5ybOOfxAcFHCeV3MbPztY8CAt9otDt/z/vmaQp8m3ey8o79I4R1FdboWuuZokJ2RavYwFQobY5LKKJAaL7T179rT7IkiI1YYNG8yaNWvMnDlzrMiIRRdm8ODB9hfra/z48XZeoLC6BRYhYKBbme/Vq5cZO3asnRBRRDcc81VrcI8Rsz59+uT2lxHsGkLEbM7PvCrqV7z73cGYPmcYc/kF3kvkN/7vwllNB67mGMRl0ihfVPp+w193dI5eyhHBiXN84SNW012HUPa81JhbF/nrYdvOYCaA2tLxXzSmvfcvHPw1Y57/7yIstIhrrhaJBcTOXWjM4m8HK+JQh3Fk69evN9OmTWsYe/Koo46yltgDDzxgvvzlL1traMmSJaZLly7BEX5A6HHHHWf++Mc/Bmt8qDLykfiECRMaAlupWhJlz6dKK1eutOdAEA888EBrmbGfBMJiyQFpDBs2zAwYMMAuu3AO7qUbOJsmKv2/5noZ5/Kyyy4z559/vv0/2HEQCEd4LvrFg6CM7G/MScf5IoK4DOhpzARv/Y2XG/OfvzRm9gRfSGDpaq947TPmmuHGrNpgzErP6GF/jptwkS+K7N/lGN+KIv1c5eptzxid9iN/f2H6HX55POIwYw73srzHey+Sr6F9jXkriGF+yzsudszn8a8bc1CbYKF6JGaRcdOU3PCmR1xOOeWUhq8MVqxYYaZOnWpat25thQWLCyFyq0u33Xab6d/fKykOCOKmTZvssWGRGTp0qBk9erS1usaNG2fmzZtn08QyQ9j4FREDCmuPHj1sWuGJtNMqYkIlqpYC9+6ee+6xfsh/+Zd/sd2GW97/g/8bwXbv/YKIYV0hFId8yi8Lxx9rTMd23qF/8XTgk8HOHvc9bMznA114/FnPSvqqMa28W/zhX/11U6/00jjYn793jTEXee8XjASsMCwvLDPmEayrZhhz82h/X5f+PXzxQ6z+9/c8q627ny5ihkAWFbj+QTJuhcSEbOv2YEaJhCoh1hif9lB9xPlOgcECQGjwa1HtxFnPesBCoHpIYcVakwlBJB3m2V9aQQWqm2eeeaYVxokTJwZrfcIFn+P4RtJNn0mqm/UE/wv+Bwj9K6+8UvA7Tqpoz3vPPdZUn6saq42LH/J+n/deOE/626UxjDKy0zumQ1t/XzokpUp65pf8qiWCc2q3xmrm2BH+9su9yhHVU5bnev9O5hEmqq1R1UTOTZ6otlKVFP811d2skJiQHf03wYwSCVVIsW6IXcLxjtggVFQF8c8wsR5/GGKCwOHQp3roChDrxarDv4MDX/xYCBD7M3FOrDCO5ReiLBjSQNCwGql6sg9CiaWWdnL6tIoEEeOeLlu2rOFeNXDIF4KZpuCzQoTwhSFAIkwIDevHj/TWH9/oYGf/Eef6VTsEj3lA1F77sz+P2C3+hT/PPlhfVB9pTMAawyobMr7RSpt5V3OBQvjI06temuTr5T/56/Hn4ScrihzX3tIkJmRFtYbUOYgEwkHLIE51/FeIEVVBsYQoTAgRsC+ixzomPnqXFk6ZBKwr0hSoLrnWGgLngmBigfBLHqhqMi/pinWYVhDhcuEaue9z584N1oTg20N6i3BAfBAtF7p7RzQQHYQJqwgQOPafNMrffoT3L8BSWrPR32fRKn878xs8K+7Iz/rHIUKIIj4whIlemLHKSA+RZBtWmZsP8YNB2yAdRBV/HJZeUaFSXHNC310mJmQaSxYfLB5EDAFBWLCw+GUZMSsY05SDdevW2bSpWmL1ETeGRSfhHmxzhYwCLCLHNpZxbkvB5ljSSrOYVcIio2ru+g0jocsbB8QEoZFqG8LV9Vhv6uSvx/clrZbsy0QZ4ReLjG3uhMjIfFggAWtKhAnRE5h3LTKsOBk/g3MBQjbgamMme0IKsauYoWuuJokJ2aHJfzCfGR555BFbhRRROfhg37tL9XD16tVNupShqnfIIf4TiaVEFeinP/2pXQ6DJXbzzTdbS06qqFhYkh5d5ZAePPPMM+bcc881p53mWxpYY5KfCy64oKHrnAsvvNDmN61gmZYD1vDevXsLp0O/XSEQCnxgON7FWX+cJ2Tf9MRr4Fn+chgc/1hkxUIjwfWX+vM0KAhYdjt3BwsBL/7Bbx2VPNGocOt1xtz9oL/88G/934JEXHO1SEzI5M2k5AfriBZBl69//evBXHMQlCuvvNLOU9WjFRJLS2LFXAYOHNiklRFrxT1Xv379GoTrpJNOMn/6058aQj3cKirVUVnPeJm0gqaVci0y+qUjXq8gdD5Iv10haJ3E8f6DG/zljU8b099L7uIpflURC4lJEHGJC8784V7aF5zTGBmwa69fVcSXhnWFtQYsY9Gd/WW/NXX0v/nV3M5f8MM9ENErvuVvKwjXmmCHi4kIGYGA4lBMA2luccPXFSYsbC5YSe4xLCM0cYJUw1H8WB1u1dKdzwX7pDUgloaSYnqgjQIrl3RiQeeDIebf5Md7ISaIBtVCwhuoUhLLJRH/AtVLqpYu+JejhlNEmKSfv0FnBys98I3tfsX733jHkN5Mr9oo1U1CLLAU8aVxXoRteNCogI+OKi/7FvRpR1xrNTkgiYBY6D7UmM1Lg4U4tGAPsQsXLqz5aHTF2C8bCJEQS7IU5MsIaVgpyK7bm/WAgZARCyY+qXwgIlH75VqfCHSw2NFTxwRJxCJLU4slAua20im1C9YijRpVhR5UD7ksWPAhaj+uCOXaLzUixrVxjQmTiEWGkBEQmBaLjDd0Oc3ybuuezFNdRST5iFqCVKnWRPVfT1wYjnXWS7xXeJ9ykM+MyAPwS774lAmfGvlFzJk6duzYsK/sJ5A39mV9JfMXhvTlfpJ3N4+yvl27dg33DMgbeaWhQxoe2BefGP8H5tkH67uc/3XRFhloV9ctTiJCRl0cJ2IahEy+QSSkAUEBd16IWiewXrbze/LJJ9uWLVq4cILzC5/73Odsi2N4fwoZ3zfmSj8XbhrFHItQIRB8s8l58aFxPBN5Ie+SnqQveXQbB+qRkoRM0MFHWoxEhIz6fY9L0iFk9QwfjRMHVlKhrFP4xAvLzw0iLhodDq7iJCJkNBEPHq9CljR8V4nFqEIWn7Issiiodub5yDwV8NlRCqqP+ah7H1k9oxZZ8VRcyJSKkFhArJI8BHcqSi2QmJBFBfQp1YWPyRWlFkhEyOgIji/zleSgtVag40UlHog/0f1KukhEyLR32OS57777bGgFPVVs3Jjc6DdZA5+ixPop6UF9ZHUKQcBYFgSfRn3PqeSGmDolXaiQ1SmMeESgq3x5oMRDP2dLJypkdQqf6dBqSTWpEr2m1gtYY9rBQPpIRMikCxElObDIQKtJxaNWWfpIRMg+/jiYURIDAfvoo4/UGisSPlR//319E6eNkoQMB3E5BJ0TKAnTrVs39Y8VCR/NI2ZKuihJUuJUR/JVH7VqmQ74zlL9PcWj9yx96LeWdYZrTTP6OH13SfiF2w8Y/XixLFXPN9980zYOiAXn9lNWDdy8CfiqZD2/TPSn5lb92MaQdwSyfvjhh/ZayxEiQlYYtSrnUHBKIiQiZJCWrq4ZmGP5ci//AdL/VqlQuKSgULBACppbENkPMcDpznp3UAyOZ39+2Y/tUWlUC8QLETjooIPsMnmQ63Tz5V5vGNkmPib2cY9hfbF9nXHvyAdIeqSDOIfvGx0uLlmyxA7jVk5X1wgZXfkw6pSSHhLrj2zkJGOWFfNSayEhY7g0ejKIerilgIbnlWyS738dF7XI0kkibnf6Gy9KxBLCFS4VMUVoyW6+ldKo+/ZDqZooipJd6l7IynH8KoqSDtQiK9Mi4/i43brQu2jUYMAc7zr7ZZ71+ObcY1jOdT78NtKDaSFIh658SJseMFgW8AG5yy5r1641U6ZMCZaiIf8M6MIv6TORZyZ6pY26B3S7Tdou48ePN6tWrQqWyifXNSnZp+6FrBK+Lwp2rkJCq6gUXPr9wr/CMoX21ltvtdsRH3cE7MGDB1sxodCzH05q9mFinvXh87E8bdo0++2k7Dty5Mgmoofock4EokePHrZ1lvMuWrTITnLcvHnzmqRPOrKNllb2JR1ZJ9sFwh0kbSY3VAPxjLKCyWc4OJd7RaxbpVA/Z+1S90JWLBRw16JAHIi1kkLCNrejQvZnmxR0hGbmzJm2sBPTxMjX4ZAA9hk+fLhdR4gB6dPaJi1uEyZMaFYoEVPZzi8gDPJNJSAgjP6D5Sb7kQfyOGLEiCbncMWGa5T1TMuWLbPHMU98Ftcj5wTOyRB43Auuk/SxzhArYtFyVeflmlwrWXuxVeKgFlmRb2n2P//8861VxLRgwYKGKhMT1gzWioBFghDJGJdPPfWU+dGPfmQDTHPRqlUr+/vGG2/YmChiozgea+yOO+4wnTp1stsFhLNr165m9uzZ5rrrrrOiyTpincLXx3ryS3r33HOPzTPpExzLNiYZh1Mg/88884zdxniYbGcinauvvtrcfffdwZ4+bdq0sfF4Z599tunVq5ddFjFmbE8X0iBdrnXNmjU273369LHnAb4HVZRCqEVWAqeddpqZOnWqna6//nprmcgy8wzQ60L1kEJNoWXw29tuu80Gl7JeYpKGDBnS4BtDyCjQL730kq2iEUBKz6STJ0823//+95uJAT28ikXUuXNnW12l+hgGy2jXrl3WJ/biiy+av//7vzcXXnihFUsmAlKZTj/99OAIHyzEk046yaZJXp599ll7PJbT73//e3vdLuTnhRdeMCtXrjQPPfSQnefauabXX3892MuHNDgng/+2bdvWihhIcCzH82JAxBUlFypkVYBqGJYRBRv/F9VJRKV3797WkkKsqK5htQhSlUNEgIKMxYIIde/e3R4vUF2ksFMdxQLcvHmzFcmePXta/xWOdI4jD+wjVTfEBaiCMk/EuqxzHfr4qsQCo1rIRJWR/CNSpC3HAddL/pnIm8wjVNwDF9LgOrHguH73HgDbSANLV1FyoUJWJAgIhVgsKQSEQoy1QeGnUGM9CRRehAORGDZsWIOjXKp8riAJpC/pAsKB3wlrhXl8ahyPD4r9ODfbsZg4Fuc6AoF4YMUNHTrUigtwPibxcZEfqqCIBcdxDELrfoJD/mmF5JdjEVexHgELkOsDrp88kPfwRF6Ae4fARl17GPlcLFxFLgV5KSi1R90LWbEPNwWKAollg3BQ4BERBIB5HN8DBgwI9vZFCIHgFx8ZAgMiCKSHSLiIFcIv1hD7ImKIDiKBpQVYc+yHlcc+WE1uyx8Cxz6kIyA6CBXIecSiEgFyWzsRL9LknOQdAWTiejgeSwphdYUP8HFhFYIrWFQZOY57GCVOCKT8T/gVX1klIM9uQ41SO6hF5hHHMnAZNGhQMOcjVTWgauRaZIAoIBgC81QBERkQqwMoaCJGrjXCvnzcjmiF4Zzkad26dVZQEQrENVxN4zoRIwq04IoJ1iMgxhwP5F2sOYF05DjE2T2PWHoitgiTrOO6+OVa5NrZjoXGtfLrhmpU+lOgKOEslmKfFaU61L2QUVhcIao0WDkUIAQB64VfqqCu5eQKGdsp7Aia23pI1Q0Rw6JinzBYXyAWH/uIMAnkQ0RJCqSs45wIEr+sw0oDrCpXuN0qZSEI6XBFLkoEEGf+B/j1qKqTl7CAcVy+WL24cF3limPUfVWSRy0yD8IDyiHf8QjDcccdZ6tIzFPtxBqT6l0YWgMRI8I6aLGTAWHlmLvuusuMGjWqSSseAoDoEX7BvlR7x40bZ1tKc0HIBWEPNASQ1nnnnWfziGhR7Xv88cdtlTecBi2SX/7yl60oF0KEEZElfa4tDNYpViRICAv3iF+uHSvzlltusa28tLiWg/tiKJVHHnmkmUWupAC68Smbvcv273/GS6olpxbCK/D7PasgWCoe7w2/f9GiRcFSYdjXqz4FS/vt/JIlS4Kl/fs9Cy6Y27/fs1Ls77x58+xvGDm3mx6wvGbNmmApGkm7FMgj5y4GjvHEOFhKBu7j/Pnzg6Xi8Szn/V6VO1hS0kRiHSsWTQt2rIg/SN+ytQ/VU6xEsQCLgWotn3Vh6WLxKumi7quW+E3K9b0o2YD/cykhGBzXt29f6yJQEUsndS9kOPqlBU2pbdyGhzjQ4EJLKgHIWOzMK+mk7quW4jTHKQ04hAmfQOCw1oBfaSnkjU6BYDuf6+A0B1rDpDVL1pfbQgZYA5IP4Lz0ny/fYwqsp9GBc7sWJse6IQ0uOOzdFtNy4PxuWAcNB/KZEURdB/vzS/7IC/3q06ghVhP7cz2sB7bR2st67i/bgLTl3KzncysXOS/p0mAiLbv5QLT4moDqJFVRfdmlm7oXMvq7omUsTitcFMRRSWsYBddtGWMbQiFpf/DBBw3fSbrr+TCabw3DiNDwS68RcXuCkDg2ESlEhXXhdJ544gnbMkr3P7Jvu3btrDC45+a6EBs376RHuuRdRJVrZ38QERNB4xdccVOUSlH3QlbPEH4hIwspSpbRODJFUTKPCpmiKJlHhaxOcRsEFCXrqJDVKXT/g+OdljyCghUly6iQ1SmENPzgBz+wPdbmCs9QlKygQlannHDCCWbHjh3WKpMYOkXJKipkdQrflxL3ha/M7VJIUbKIClmdwtcJWGP0l6YWmZJ1VMjqGInwdz8tUpQsokJWx2CJldIbhKKkDRWyOoaBfvVjaKUWUCGrY/7pn/5J+59XagL9aLwKuF3YMM8AHjjb+cU/Rbc8b775ZkW6/cmFmweQZQY1YcAPWSYv9I9PvuiPi3XMS7c5dLtDPqWlkxg0qqfs556DLncqCWnLLxN5oXcRIE/ySxc+dGeUKzaOAVFkAJZCkB7Bwgx1J9elpJO6FzL6naL74jid7rkFNS7ig6Lw41yn+xsRMCn8iBjrC6VfyvkLgUWG6PBL+ggB3fS4+Wa+Y8eOZt++ffY+sR+FnLy4DQWsB9bTbQ9pufmtZP6lmyEQISUv3EvpVog8Sv7YzohQLMft6pr8MpoUzwejPFUq70rlqXshY4QfHlh33EmlNpEh84rts5+XHR1rMlqVkk7UR+ahb1olH/TTv2HDhoZegpX0kZiQPbklmEkB0nupouQCK27RokXBkpI2EhOyx35nzJQfBAsJQrVSu19WCtGnTx/zn//5n8GSkjaqJmRvh7q/OvQQY47+m2Ah4LU3gpmMgfO+FHA+i4O8VKTFzqXU/JSbF8iVBvnEcS7zcUYkYj/xayUNjRw0MMg1KOmias7+9ZuN+c5PjBkUjMCPRQZnfsn/3brDmOf/25jVP/SXm9FCzn765cJHVsqgrULPnj1tEz3fLUorIC1p8h1jrsF/OS48qo+EPIRbUSlAiATVGzd8gEFn6cXC9fN169bNbNmyxV4bH4c/99xzdlARWiARz2XLlgV7+pA26/k9++yzzdSpU4MtzRkyZEjeUYg4J+cGhEjCILgufEwDBw60oROENeA8Zx+u6Uc/+pG1jN3Rqrimiy++2IwaNaohcJd0uDdxQyhcSnX2CxzPS4L/tZIuqlq1PLq99xBd4E8IGJMsD+9nTO+vBDtWkXId/TzYFDIKFkKAaFFQcBBT4NzwhOnTp9vCwDR+/Hh7bgq6rGNavny5WbNmjd1/6dKldh3iQQGn0HOeYcOG2TguzoNQha9BCjktsYiOnAsRcAcaIU2xjBBfBiNBxNgfQeLciG3YCuGcxGNxfvLCkGksDx48uEmArWudkT73CbEi79wXxIr5hQsXBnv5LYSA6HLM7Nmzm3x9wL3hBZEEvJSSOreSn6oK2WGfDmYieNcfojBzIDwUYAgLCsLjrkMkKPxMFFQKsCwziRgwD0OHDm2YR5SkQDOkG0IDpAOIBsLEhLgiRiJAEydOtAUQC8gVVgomgutaN9u2bWuweDi3iLTA8ZwDKwqrilGYWCY/3As3jIV0EE/EDYsPPxN5YT33hrTkmhA49uF+kS/EkonRvfklDYRv8uTJDfek2pAv7YQynVRVyF582bNK7vCn9V4NYtWGxuU7fu77zbLGLbfc0vBw0/qJVSMT66NaRCnMBMdS8LHSZMKyueqqq5odQ7S9u45+xBADkHEkEYBPfvKTdj+2IVBUJ/ll7EmqsICVhfAA5yQv/JJf5i+88ELzyCOP2O25EJE79thjzW9/+1t7DvJIXsLVaKqSd999tzn99NPN9u3breCRVwSYAFvywvkJZMV6pNpGPrivd9xxh5kzZ46dp4p5/vnnNxuYuFjccUdLJep/qiRL1YSsvVfj6OyVvalX+tMF5xjTv0fj8o3eSzafxdaSlOocx8IZPXq0tRQA4cCyYMDbF154wVpXrAuzadMmexxigJXGdOKJJ1pr49FHH21oRUVcKPgvvviiuemmm6x1A3wFIJ8IySjccNJJJ9mqINYZ1gOf6pBW69atrYWGP41rlevlvFTdOPdpp51m55966inTv39/ux1yOe9Ji26y8c/xmdPjjz9uP2MaOXJkk6ooAsQnTytXrrT3BKHkOrg3HE+1Gb+cex7yIVVc8kL+8JNxHNdeKvyfyEs5cN+5DiVdVE3Iunjlbu7EYMEjbH11PdaY4ecGC1VEPs0pFgorIkH1iGoblg7VJCwMrC3SxCJj2H0KvcA81ki4GoqIiTUjQoMoUVXDAkI0ESeqZFgVnF8sqzCSNnkjHxMmTLDzVF35FWtOwO/EfldccUVD9Hq+e0JhxnIiP0zkm4nrp7ocroqK74zz830kwaWkwX4czy8ChVBxTe5EfriPcm8Rdvd+FoNUactB7qmSLqpatXRJi0+MhzIsKnGgAIqvhgJCtZBlETgpuDjXpZULsaP6xLEUSgok65hkO9PMmTObFDgpOJxHLAL8RiBVRhf2Fx8Z+5MfzocYILrkTeB85JP0EF38b5CrsLKevJEe6YuoMuHjYkKA2S5Qheaa8avxy71CzNmHZSHq/0De3fX42Ur1kZGO+BRLhfupDv/0kZiQpQnessUSLnSIBC1uWBdYZKRJNUsEgcJPoWW7zCNwFEomCojMI35unig4WCL84o9atWqVPR+QHlU7oJWzb9++VpgQOI7hHIiVNEhwbrHIcOyTP9Lgl2uiWgcIEsdhHUaJKjDPdXAcv1wDE1ViESiORSTZl1+EkmtDkLp3795ElMgXx7kTfjd3meuW/BcL10L+yqGUZ0VpeRITMoJhj/9isJAgvKEr8YZFxKgCScHkgadaiJghCFLYZZsrCECoQRic3ggTvS+QFsdjxdGa6cKxpEdvEMSIsR8iRjUPQcI5jQCCK8AImdvK6ILlyLUgHJJXhEDEhF+5XrkuBEYEVuBY0uI+I5hYcFw/1VnElZbP8L1wkcaMSpHvXHFACF1hV9JBYkJ2ajc/jixpKlFQsEAoqFLNwwEOFFzW9erVq5mAyJudY5mk/3wXRPDnP/95gwjRuscwbiJkcqwIJaLCL2ljidH6+PDDD1uhwf/F8W7jg+vUd6tchDxI/ogTEwuI1scxY8ZYYURk+/XrZ6t+wHlx9ofhWLZxnzn/73//e5tfQHRx+H/pS18yDz74oF0ncF1nnXWWFeRKQSBuuc5+7gsCrqSLuq9aUvjEoiiViy66qEkV6YMPPmhoySRt6QBQOOWUU4I5v6WTWCzCE8LQColQYAFQoGndExGjakb4Aq2M+LbCYCESEkFVEZ8VfjdCHG6++eZgj6a4fjP2l3vCPGBJkUfEYMGCBbYV0bUMsVSiWmjJJ0hL5A033NDgTwTy+ctf/tKGabhwXkT8u9/9btn/H4EWXvEBKrVF3fdHhn8Jp7M45JXahf81boSoBpK48KxgUbpfSCjJUzWLbJtjjY+MeI74YPzO+0zVWzOp9kT5p5TahP+3UntUzSI76mvGPOMJFfFj427xphHGPL/dmI1PGdMmCNbG+Y/f7MjW/nITWsgiwxlO6IBaZPHAWR4lBjQEiC9N9pF1skycGF1m79q1q9kLBL8c60sJjxDnu/j1wnB+XAikTwxbOdaUWmTppGpCdtZlxvx8jjG3LjLm1T97onWsL1oTvXWP/jjYKR8tJGQ8mDjC8fFQuPAjMVGg8M1Q+NzChS+pGhacKxjMC7IOJG8SUyYDhAD7ISTAPuTbPZZ59ndj0jgPYiDnlvO6x0Gu/MhxhcB/6N5T7j3+K/r4l7QRJ9LCOR/+LEnOET6fu5wrL/xPXX9msaiQpZOqChmCRfWR7yxnTzCmvfcClfUC/ZYdHlUWWkjIaIFbt25dk9ZLHOyFvqcjEv1Tn/qUOfjgg+2x4kRmXj6jcdNg+3vvvWcd+O56afVzYXvU+paAWC4G1lDioUKWTqoqZNd7006vvN+5zJg+Z/hW2QLv0DHD/b7I8JNRrZw0KjjIpYWErJ5BMAkNUSGLjwpZOqlq+IX0N8bH4VQr+bbyLc8Co7NFBOxUr4YTKWJKiyDDqSlK1qmakCFYQE+wfCBO6+SsBf464dCEer+oVyoRDKwoaaBqQnbEob5/7PKgBooVhoW2x/Gbv7ovmFFaHJzhgjuvKFmkqlVLqpRYY0LbzxrT3w8ctxzT/CsdpYXgSwEaIGhB5HtHJR4q+umkakK2Y7cxL/7B7w0Wht9gzD9f2dQntu/NYEZpcc444wzzH//xH7ZDxWeffTZYqxQiKqRDSZ6qCdmsMcZcMtCYa79uzPwb/R5iv/8fnhXmdPgpgbFKy4OA8bkOsWTldh+tKElTNSEb2tfYUZSI7CfMgm583FGTepyajt4w6gWxLNyAWkXJKlX1kQk21KJbsBCA7yyLg49kGXqYIIK+Ur1L1AvaH1n6SETIlHRAMCzVy1zfKCrRaH9k6aPqQrZ1ezDjwPeXWR3XMsvQmSNCplXL4tD7lT6qLmTfutOYpauDhYBFv9BqZRKcfPLJttcJbYkrDhpIlHRRdSEjxALHPw5/IewvU6oDrZW0XirFIT2MKOmhah+NA9XKEZP86P77H/Hmz/W/t+x5qTGrf1jAKkvwo/FwbxQSFMmbma5n6C4Hq4bufQgwZR3bZF21uv4Jg1Ma/xfdVCNa5JuJvNB1Dl1h068/zn7pVofPlsi7281OSyD3kDzSZ5ncY7om4r5JP2Z0qUQ+uQ4ZJIa8l+qnqkQ3PgQQM96Akh6qKmT4wmTQkb7fMGbZXMTAmIun+J0q0htGzkF6W7A/MkYqcjsAlEIGLBfbrY4rBtJ3vwiD9Avmnos+t5hYds8vQumuYx7CeZT0wJ2PC/lELBAImScd+ZX+wkhX+gpzt8syMM89i8p7sffSxb2X+PcQOJB8AOskLk7OzUT+6XuN/3e5HSsyktXq1SH/iJIoVRUyLK9Jo/z4MebX/8Rfj6hhkY2f7Ysc32E2owWFTIZOU2ob/tfldsFDGnTEqV0fpYuq+chw8M/4pt/vGFVM1y8mXVuzHausmvC25s2t1D78ryuBWIZKeqiKkNHr6y9/61tbu/Ya89CvjRnYK9joId334CNzPyqvBlTflPqgUi8sqsxKuqjKf+SFHf63lnDGKcYsecirWnb3l+HlPcFMAuhDGQ98W4oPA6go6aIqpZhqJP3zw5Nb/O57aLUUkvzGsparlbQAMpZjPoYMGdIwSEkYjpfqGH37y6c5sg5/EaOgM8huvUCLqbSeKumhauYI1Uuc+Tj6aa3EV9Z9qN+dD9CiyfbFv/CXq0lWv52TFjTEipZXHNlMhAcgUAx9Vijsg1ZKGcYtzJo1a+w5EDoGVEH0x48fb8aNG2fPy31juXfv3sER6afc/3Wl/GxKZalKqyVW2KoNxoz+t0bHvsDAvXtf9x6Q9/0pssUSWqjVkkI6cuRIs379+mBNNnFHQ2KcTqyGqHgpWtzkE5t27dqZG264wY68LQV00aJFZvny5Vbc2HfevHlWtJ566ikzZswYux6xJO2sfWyOhTlz5syyWqi5Tz169NBWy5RRtarl1Cubixh0OcavWmKp5RSxFgSLRWKQskqUlZDLcmD92LFj7TR06FAraoiSrAOx0KhGsb8IIsIlLXa8ANiGxUb4Shas2koE+ea6r0qy1L2nm+BVCazMKkS/u7AsrbETJ05ssj3cShuueroDknBfsM4WLFhgnn76aXPffffZ6ips377d3HLLLTb9U045JTP3sFyfaNZferVK3QsZEd9ZFDIsA6rEVPNWrlxp14mP7PHHH7dVQea7dOliRUiglRYrSiZwl90h4vCLDR482KbBB+Z8Y8gy0JdZ//79G+ZlUOK0k6thIy5Z9afWOokJGX6zx37n+8j4gJxlHP7VDsXIalUBywJfD9W+Pn36NHxDyITz/cwzz2xYRmgEKYhy3e71s41PfwRptaTwY6mNGDHC+s1cXAsu7VQikFUtsnRSFSEjkp9BRxAqpiHj/fCLtb/xh4Pr/m/+fgjbzgRiyrL+cOLY5xtOIZ8483kOoofQ8Ysg8suEAK5YsSLY0/eVUbVEwLDUWOZ4BE8aDLI0yC8+MvH/lYpaZOmkKkJGtD7Ofpz6WF+EX9BnPxOBsQwDR4PAkZ/1o/urCQ93Vq0yAbHB8nLJdU3FFGQsMRz+Xbt2bbC8ED7Wia+JameWKLdqWa6PTWkZql61dIVq8UP+oL07d/ujjlO9VIoDPxjWlCtQWJiVKnD4zYhLo1tsfjt16tTQugnbtm0L5tKP9DxSDipk6aSqQkZQLCEY0kPs8H7GXH6Bb4lNGtX0Q/JqgaWBwz9r8MkQLYb08Bq2xhCXuJ8UuT6xMHPnzjUzZsywcWYEviKQdF8jopm1z5ZorMji/1opTFWEjEBXfGQPP+77xt4KwnnwiWGRvfbn5CwywhF27doVLGUH+vSaPXt2E0e+cM4551jhicNPfhL0pRQDAkGx/gR6l5UW0ywgfZIptUdVhIzqJD4yAl4Z2xIrDL/Y5H/35/GdYZHNvNrvYLGa4P+pRKBkmiim8aKYfblXLlSzSu0kMQnKdfQr6aXqPrJ33/OtMHjHm8cKe367/4uFdv+v/G3VxG3xUxQle1Sth1jixe74uS9ekz3ri+om88DH4nMn+vP0jIHV1owW+taS5nTisPTbufKhpTTsDHfXMc9XBnTrLZYg95/tVO8J5SDWi2X54kB8mCyXO/YB5+eD93L/1+53rUo6qNpH4/RycdfU6C57pNtrxI3Ysmp2dQ1Uj+iOxkUKIM31FDyi/6XwyTYKH4WMZaqncQsahbVQdVYKvUTMU+BZR/VI+r0nYJU8iVCwf+fOnW0eWCciEZ4HyYOsl+8qWefmT65VzhmXXPvTuLB79+5gyYf7hiMefyXXwzn5JW9t2rSx22S9QJ4kb1HIvuH9uE4aL8pBhSx9VM0ie/NtY1p5zzW9YKzb5L1pnSBrhI6Px/cEsYaLv+3/NqEFhWzVqlWREepSEN1CyX5MFEYK11/+8hc7ShGCw3qsCnqVOPDAA+28CJGbhswXKw4tAYVy3bp1iecjS6iQpY+qCVnZtKCQ1TMUSj4Ez2XZKM1RIUsfVXf2K+nDrbIphaHKq6QLFTLFVpGV+Kj1mj5SI2SEZODsV6qPWmTFoUKWPqoqZPSCMeUHwUIIdzASpeWhekRjg6BipmSZqgoZvWA8u82PKQvTppXfsrlefahV4bnnnjNz5syx32o++OCDOjJQEbgvACUdVL3VklCLl//k93jh9oRx5zJjLg+S4LOlZmirZcU56qijzIUXXmi7AdqxY0ewVikEPYDo/UoXVfeR8S0lAa/0dNHnDF+0mIjol3mlOvABOIGv0kmiomSVqggZ3VfjzKd32L7f8NchZCMne2a6umYSQzpF1FbL4tDwi/RRFSGTHi+Y6BUWqFYy/1YgZNXuGVYxZsCAAfYTLLXIiiPcC4iSPFWtWhJeceingwWPhbOMaR8YA3SBrVQXqpYM5qsWWXHI6FNKeqiqkH3412AmgGrlg4/6rZgd2wUrlarB95X4yNzOEpXC0NKrpIuqCtkj/9f3l4n1dfihvvP/hu8b8/5f/HVKdUHE6BFCiY/2Mps+qhJ+QZXy3NHGDO1rzIj+flAsfZEdf2xz3xj74ktr5jPT8IsWgXEqGeJNiY/0XKKkh6rFkRE/5g4ugmVGz7DEk7kM/pqxA5Q0owWFLJfPA0c4n6PQ5xgjdDNPBDzTzp07G7rtAawaWrOkH69SIe1Cn8CEu/+RfJIn+hKTvrvE90U/ZXQ7JP2M4dwnAJb8ExhbbBfQcg+ifGusB/cayJ/sS59jci+B/blv5IH9ovpz495ybZWAtJYtWxYslYb2fpE+qh4QWzItKGSf//znzaBBg+w8IuEWtFIR0eCXtERo6ESQwiviQeHt2LGj7TzQPacUboFj2C6/pUBegONFMCQ/gNjs27fPCjf7uOehE0k6OQQRShBhEsJ5KzW/cv/CyP2ks8tWrVo15EPOI4LJsqxzz18JEdKA2PShQuaBkL3yyivBklLLVOJ/rRZZ+qiqsz+tiKWh1D5YckrtUXUho8WSwUbwmdHjBb8yEfmP76zaUJ1S6oNKCJlUZ5X0UBUhQ7wYXfyKbxnT5ypjen/F/7Zy5l2N22mtZDg47ZNMUZRiqYqQ0QpJ6MX8G405pr0vZDLkGy2ZLDO60pGeuNHVT7UpxRmtZBP9X9cmVbPI5i70Pxzf6VUdscyoXsL0O/z1TFQvk7DItKpQP6iQ1SZVs8joa6xH8CUMlhkD8rJu6pWNH5QvmpWMj0wf7vqhEi8tfV7SR9Wc/XyOdO9aY/a86ltnWF/rnzRm3C3GnDfGmIlzjFmw3Jjr5gUHVJGowE6lNmHMUaX2qJqQ8YE4H41fcr4xJ/yt338/A/HOu9aY9m2NGTPMmNkTjFlxW3BAFSEoVakP9u7dG8yVjj4v6aNqQjbBs7ioSuIDE+e++MYQteW/MmbkpGQGIVGLrH5Qf2htUhUhoxo5oKffUinfVtJCic8M3xgtlXR7Tf9kdINdbdTnUTzVEISWsHwq8b/WF1/6qIqQEWLRv0ewEEDvFm6oBb1hYK1hoVWbcgrMrbfe2uT4IUOGmPXr1wdL0dDjRClCMGvWrJx5dYd3W7x4sbnzzjvtvJyH7eR1ypQpdhm2bdtm91u7dq0ZP368/WX5/vvvt2mQz6jzkRaf6bjbWBcFH+STNvszP3HiRHsOJq6HycVNh/3DvbFu3bo1mCuNXPksBn3xpY+qf2s5ZLwxk0YZs/Y3fmtmmLZtgpiy8LYW/NaynG/nwt3gFEqLQs3H4IMHDzYzZ860vTF8+OGH9gNoChmFZNIkr44dAecaN25cZFfLiNDDDz9sRo0aZTZs2GD7GWMd6W3atMmccMIJ5swzz7Q9X4hFgeAuWbLE5oN02U6PGOecc47dB1GO6imCa3A7ZETQFi1aZNasWdOQN0SI3me5Jq738ssvt+uWLl1qZs/2Y28QS9JhGyC63D+WyTfL9NIh5yEtphkzZpQsJuX8r4VKpKFUlqr5yAREDAuNXwm7cCeqlpHd+KQMCiVCgFUzd+5cKzIue/bssdsErCV62Bg4cKAVDL7vRAARralTp5qxY8faAuqKGOmvWrWq4Vyk+eKLL9p5puHDhzecA+FBhB566CF7LvZFICnwDDJCupw3XC2it1PWiTB06NChYR96wQhDXujtguMQHIaT27hxoxU8V2ARH65JehURyKOAeLuQh86dO9t8At0PkR+uBfiU7Oabby5ZxCqFWL5Keqi6kLl9kqWFUqobdCdDn2AU9p49e9rucKi6YUVMnz7dTJs2zdx3X2M9GWvpu9/9rt0Xi+app54KtjTFzcu6devM448/buc5l3RdwzwTXeu4YoNIYHkRYoAIXHvttcGWRhAi8iggQuTbhX3IJ2m5kDeqnYhJv379rMU2cuRIc/311zdYTQJCS7WR/bHM2Jd0V65c2VC1vPfee4O9GznxxBOtlUp6Z599tpkwYYIZPXq0rVIi/nR3VA6l/K/DuH3BKemg6kJWK2B9UNiwXqiuYXlggbAOC4tfsSyA7VhGFGDmqY4xj4jwi++KeSw7qoQCaZOWnAvBdJfdPsvogpk+zxhwl/7GqC4CAsI5+vbta+fd9Hv37m1GjBgRLPn7AhYc53D9YGwTi5H0yBviyXrEygUhZF/ywX5YbH369LECjyXHNG/evIY+0gT257o4N4LL/eC+kBaTWIulUu7xSjpRIfMo9eGmisEbHv8QVgSFW6o9CEC4CoSVgl8IqBZSmBE/finACB8FHnER8CGRFhYJBRvRYIpyelMNIy32I18iZIgC68kPv1Ldo3db9nXzibXBdXBP+HV7ZmU/RAVLi3n24XrIN+LYrVs3a6GJqJEHJvKLULOeqjAWKRYa6cj1COSHczDJeo4jL+yPf6oSVpVSW6iQlQgFE2sBAUIcKNQIBgWawhoWRwojVcViHdUIFk50HPgijggohZxCHwZhIR+IoQiZED4v+UQUqP5JWjJCEGkgzogU23DS88s6LCyc8GJVMk9+yOPChQsbLFG2cW/IC5Yj4o2IIaSsw7coViyQPnnkGNZjgTHPcWKNYW2G762iqJCVCNUxEQ2Bgk116ayzzrIFUqwo4JcqJ4U+LhRihI9fJqqziATVNgp3uEURC4v0EQkEisYEfiWPYUuG/REV0hKonvbo0cNWQ2U91zJ06FCbLuuYuB7JG1VGhMoVGBFzEU/2w6JC3BB7JpZpMRXIOyLpCq6MiQC09LpV6VKQ/0c5UL3nf62kBxUyj1JaodwWOgHnPsJASAPiwecwDz74oE0fESiW9u3bNynUQEukEN72q1/9yjrecfTjGKfQM7iIWEjhnnCffvppWx0FSYuGgtNOO81s3769iUi7YH2RthyDVRpm9erVdiRzN49iYZ1++un2frDshq5Q9T7llFOCJZ/XX389mKuMfyt8z0qBa4+6ZiU5VMg8KtEKRfXsoosusvNYTFgWiBjVSTf9sHO7WHL1cIqF8IUvfMGK6LPPPmtbSbGqECUJcwhfJ/3XE87hOv+xWObMmWNuvPFGe3zYiuM8VKuxpMRPR7WZ63W55pprrBCHQdQRY9LlXFhopMl6WmG5d8A60tVBPpQ46OAjHqUEOFLIcPJTmKliUS3C2nBhH/xopC2WAAUXZF9JByHcsmVLXqsDRzoWTJRVgTAQiiFihRBwLvImuAGuONMJnmV/8ki1Dcc+1hbVY85B3pjIK2nfdtttVnzwX5FPBPA73/mO3YZvLCrvpCf+PDff+NqAdVTVEFtE2k2De4Jgkh+xKsuFBgnuczlQJUa4pdGkJD56z5j3/xAs1DmHfMGYAz8dLJSGCplHqZHaWBEEaYpfKgoExfXrsEzhDRf68H5RIFb5hM4FgXWrf1DoHGExjAP3oND+YRFLkkpE5YdfRrF5Y6Mxb673btoDnpBtClYqlgNP86oM5xvTyrPIW58RrIyPVi3LgAKMMOTzf4WFg+UoMconMEJcEQN8eGHxKHQO0i9GxCDO/mkRsUqBewArMzb/87T3ZhnovUn+lydkk1XEouCecG+4R9wr7lkRqJApSpHwkgj7DiOh+rjrdmN2nGLMByuClUpBuFfcM+4d9zAGKmSKUiTE2rmBwpFQAF+62ph9Y4IVStFw77iHMcRMhUypO2JZU3mgOl0wjT0LjHn/x8GCUjLcQ+5lAVTIlLqjGF9jLmhFzeknw7+jlljl4F4W8JmpkClKCRA+QmhKJLunBjPRMH5F3GEP6V05ilzHy/7uduY5Zy4YGJvu5uPC/vQnWAzki05TGRqyJArcUxUyRSkBYsjcQOIGCLEo4Nh/YYcxfb8RLERAgRchGjm5UfgQAybGhXWPR4Q4hk5Lp/zAX9fjEmNuXWTMLK9Wxrph1/vrgf1FiEibUf/7XOWfQ85Deu7QjO48HZ8y+pnLtp1N94ni5T95QvZnY7oPDVYUA/eUe5sDFTJFKQE+3yJ+kNi8JhAnFoEIk+B2884211JBZBATBAfRWOklibAgauzLuLDrf+Lvi3X0vLcfPSszqM/qH/rrj/fSHzsi6Mj0+Kb9ADJexhU3+2kuecg/18yr/fMuWuXn5bhOwc4BCBf7MzG4NvniV8QScWIAIYE05TqYyOernojRpf2Ic/2BuTmuKHLcW1AhU5QSueSSS2zPJE0g2DUE1goWEuO5Mn7rjLv8wk1hZvr36cZcelOwswdCc0pXf5zXDm2N+eVvfVFinAsExIVlelU++m+8U3sisT6I9f3YiR9HPFzogbn3GV7anzfmt88a89RWf3p2m5/Xa77rGT9veWkGX5iRZ/IkvTgzuLYMsn1hH2NO7GLMwpl+HgWuD2HD4mPqfLSXtmeJMs+19epuzBknBzvHJeLeCipkSt1RbqulgJDxqRdfN1gIE4gIdm3TyreIxo/0x269f55vMTHKPlPPU5sPzsOA1kP7GrP7VWNuuMwXBhDrZvEvfIHBasMyunOZMQ97gvfgOl/MECaxoLZGfK76rpdVznm3Z5lxnoFnedcz0Ji9rxtz11R/WWD7ZM+yw4IiPX6xxJif9iNjHnmi6f5CD09ke3qCdUJn/1yIK8tUrZes9ueLgnubIxRDhSygUg+3km6Iyi8YAxYTvpSYPHmy6dWrl1/FzPHtJJaUC1aJy2ERnxkiEou9ah9ChXi5VVNEBBAYqqhYRqSBBcV8F69ayBiyDLHINLyfMUcc1iiGYRBZxBHfG0Myhq0+tpM2FtcwLy2qq2KdYZmNHe5blqThsmajfx3439gmY3FQ5Zzg969QPDnusQpZgApZ7cC3nfIr8xIqQY+74Z46yoG+2fCX8Q1nPhARCrVYMU8+7zvhsW4o8GEQCUAEqe7hkAdEhWoeAiZ+L3xar+7zrayel/pVuGM6+OlOvt3fB6tPBFOc8mJhMSGUTMwjlEd9rdGHxaDZzOM/w6f2+V7+POdiX87T/kj/eBeEj+vA+pS8sg/57eL3GVAxDtCPxr1/SM+e9ntJvgn8+OOPbcAjBUAcuYwaxHq2M7HN7Y+KtzzrW7KPKrEk3Bgot8AixOSTj75lH5zR9CxBvqT7IApytSBfcr/IH/My9J1sl2vAuuF+S165BrYx2Aj3Xq5J0pTtYdz/n8D+LvRkG15XKvSEQa+1TEe3P9y76Z8LtjRCwUUIsJYErB+sGcDqwmEvg1PT+ojzfYOnvQjeHK86etMP/eXNS/1jsbhEHEgbB/qti32HPxMgnlg/iMnjzzZWXxGymd4xcn6wQutVT1mHmPU6LVpssCYvnmLMsrnGjJxkzLzrGi0tF/KEZcfEflh6VIfnecLHtZFHRC1srRbkBC8DET1lqJB50F1MLhGiUBVT+IkvokeMjh072mUKsBRCOjyUIdpAfqMKH8h6FynIhRBxZf98+SeEAAuFiXxK7xeIiogF6ZAXhJJlV0TkHIIsu7+1CteHJfbEE080/p+e+3KknywMYoUYRIFQYYFN8qpwtC4iAiDHuEKGSC7/P75YiTgiRPjFsNIQQvbFP3XRAF90sLAY8T/snBchywcNFp84wD82LGSIF3kG8jr/Jn8blhutrOS12/nG7FjjCxgW6Yxv+vvHgh4yTngiWGiKClmdQ7/5FMKiu6RRbHc+jLlJF+YN7PRUh14cCjD8Bs9C+XawEAJ/E8JEdQ3hoJEAcQIRLBEyqp0d2vqNAyJkAuK03rPiON7FTV+II2ScC2Fd6VVXOV/4Gtzz0xCBVTfnHn+ZY9iOX49wEvYL57cgrWZ6lkLjuK8uzXxkvGWU+oFeWZXSQMhouWwC/WkVgOrZ+38JFiKgFfBez2pBvLB+EAWqjYhPGKp/iIqAIK3a4FfjqFZufMpP57wx/i/V2Fae8SgiRl6wjBCxXIjv7I6fN4oYcA1YZQjSWZc1Ovs5N62YVGUnXGzM9d42qsbf9vLAOloz3f1jk+feqkVW5xA+QPVPLbLioOpNr7qRnTTSn1ae6H7E4zteVStOtYrq2P/3v4259uuN/iSEB59YOKgWsaGV8hOeeULIh1T52Pbxx74AIWTucQJpYuVJ7JjAsTj2e5wafVyUn8s9B9e68elGv53AeuLkRvSP9rE14+DzvEQfDBaak1fI4vg47D5ve6+PPEIWdbFFo0LWIqiQlQb3Df+n25V4A3zgTH9aSuXo5JmWn8kdQZs3/CKOozbWPuWKmNIi0Fc//z8aBmTgYCUehHPk7BmYAtfmtmBBKRvuZR4RA40jq2NwVFMg+cxGWlaVeBDakmu4PEv7UcYcclmwoJQM95B7WQAVsjrmq1/9qv2lUKqQFQcvgby1EWKd/vZ2tczKgXvHPYwxwlJZQqYtnNmGcStxWlO1lOHZlMJwz6LG7GwGBbDj1b5/B2e1Eg/uFfeMexdzmLiyhCyOfywXNNEyKcnRpUsX+zLCGlOLLD4ET+etVobBv0OL29G/9mOhCOxUmsI94d5wj7hXBXxiYRILvyC6mMjjqNiYSLTVskVg0F9a31avXh2sUQrBlyD4FiNbLONCLw46QK9PlgfoJeYFVMiShZZLqpZE+CvxKHmAXqXFUGe/YsdpVOKjvuH0oUJW5+DrYZxGJT7l+IaVlkGrlhnFtQooWCzz3SS9bsg26TonqmcPqpP0ZrFpk99TQzWsMvJFDyB048M8eQt378N6JjfP5LWS3Q/xaVE5jRt03UMrL32RKelAhcxj/Pjxto8qQYSAXx54YoYOOuighi55+KXgs54CyH4UNAochVL61nLXAyLzwgsv2D7CQASItCnEsiy4yzLPbylIHlxB6NChgz23C10QSZ9mnEuume6c6RtMrl/yEZUvlqXbn6jtcaFrIWLc3Lxz70iLPEp+SJ+JeWAe5JxyDYB/a/78+cW1OobArzhixAg7tqWSDlTIPIYMGWLGjh1rH0wKbLgPMKV2QIRw0pcjZLT08ryUk4ZSWdRH5uFaDCpitY9YeErtkJiQRQ24kBSlVHuU7FKuv02fl/SRmJBF9W2UFPhbFKUYGoaAU1JBYkJGH2VpAaexkhsaLpSm0JChpIfE/hsyJFUakBatrEJfYrTMCbTM0RJbiIkTJ9pQgijwGzIwCdDNj0Szcx6mxx57zDq9zzvvvIZWwixQqbxm6ZrrgcSE7NAU+ciyzqBBg0yfPn2CJWNFJs53gEcccUSTlje3cOIHYogzETOCZhEuvjGU7zMXLlxoVqxYoT4jJXHUPs4wYhkhLox4vX79emudEWvFh80IjgvbpkyZYq0rJo5btGhRw3KPHj0aLC9EjdY94ri2bt1q90X0sF6Jk0M8s0ilRDfrVnytkZxFpv71sqEwIWYUTsRlwoQJNlB30qRJNiaOwE8XWusQI+KoJJaKKHd3meH/gTRJn3RIGxBIBI5JBJTqaT12k61+w3SRmJDtezOYSQFZboHCMkKAmKSqKFYT0fVhRJSEcEMHfZTBtm3b7FcLiNUtt9xiPve5z9kvE0izXbt29hcRu/rqq+vuUx3uszYQpYvEhOyQTwUzKSCrQbCM5ONWFdetW2fXyfJVV11lq5guLMt2xIpvLWUZ0RIQKj5fwmLj86nf/OY39ltO7tVbb71levbsacNW6rFnWa6/TZs2wZKSBrRqmWH4TAanPtVCBGXatGn2+0SpKuKMD/uyGPmHbXwriPWFBcc8goWPTKxTrDomhJH9hw0bZoUOf5l8K8r2ekVbLdOFOvtrBCwqBAffVS7/DdvlQ2dxevMr/jA6VxTrlHWkhTDKvtL5IuIH+OfqEfEVKukhUYssTUGxWQarCauKATFw9NOCGVdkorr4AcSLwor/C2sPgcMaI6ZMxDCrhbncfONnLPczJ6WyJCpkDAefFrJoXVAgCXzFQpAqJAI0c+ZM26MHwa6ITy5wWueC40hLgm3xp82bN8/Gq0mVMquFWSzMUlFrLH0kWrV8/y/BTArImr+HvtDGjRtnLaZwqyEWAzFlO3fuNE899ZTtzDCKAw880PZJFgVhHPjYJH0KP6EZ7rmy2rMsolwO5QqhUnkSFbI0tVxmzSKjGlmog0C2Dx061LY6RnHNNdeY/v37B0v5GThwoE3LJavxY9riWHuosz8A60WpD8qtGmrVMn0kKmRpCcHgUxwJKVBqn3BQcLFo1TJ9JNbV9ZNb/EF6Z3wzWFGIFuzqmqBSd/RoqpniM+Pty4MbtQ5YL9Ycgsh6qi4EjwIOcdbzi3OdYMpycbvjlrzwSxCru15gPd3OsE72J9/kiRZJlgnZSIPzXvLNN57kjXvOOpblZYMQcQ/c6Hr5f3Ctsl6OBdkONIYQT1cqhLoA4SxKOkhMyBCx5//bmEmjghWFaEEho4cHt2ophT1MrvUuFDZEEfGiILm+NxE11yIgTSLk3f6tOAfrRZjkvPLrClmxSP7CiAjLQCicSyauI5xHyQuTLIObT3DXQzl5TwsqZOlDBx9RlCKRwGEVsvSQqI8sTXFkihIX/WA8faizv87hI/I4vckqjYivVEkPiQkZoyi9/KdgQUkM/dxGqQUSEzJGUXrnvWBBSQR8PTjjcfSHu/tRlCyRaNVSSRa+DqCra1ox3b7IFCVrqJDVMV/5ylfsd4eERpQbJKooSZKYkGmLZfIQcEqsGuT7ZlNpisTGKekhMSHTFst0gDUmHSgq8ZDgXiU9qJDVOQiYG4mvKFlEfWR1Dr4xjYtSsk5iQqbdXKcD/GTqH1OyjlYt6xwssnxdXivNkZGmlPSQaDc+dy4zZv6NwYpC6EfjeXH9XHTJQ2wY1lacDiPp/aOcbm3i4ubR7RWE9Qgq4wTIVwb00sF696sD6Q6pXLBAy7FCtfeL9KFC5kGXzQysEQZBwH9E32IyArcMtcZ6+siSbnkooGzjl21uQQUKJV3kMIUd6/SpT3AquIXdRdaHf3MRLvQIg4iFHCf9pomPjF/iyhhRHDgHyHbgumSZ7W5XQyB5C3dBFBfEl2NEiBntnElgG+enWyE+3nbTlnn3nDIv3QfRQssoUOWIkApZ+lAh8+DB5IFnwNta6C9LyU0lRIjPufgSgsGRlXSgrZYBYkGpiCmFiOqYUkkWFbIAql2KEhcseCU9qJApSgnkGmJPSQYVsjIJv5njvKlb+m1eavotmS8aQqT6ToNDvhHQBfxQDDRcTbgHDH5ciFyDHivJoM5+j3IcwEOGDDGTJk1qaM7v1q2beeKJJ/L62hi1iZY0jguDI3nQoEHBUiPSzQ4trLQqSosg+69evbqhlQ6xYARyWmGXL/f+Lw5sYz8aNVwQlTVr1phbb73VfPvb3242EK8LvclKqyVpyahFzJM++SQ/QP4QMFpPWc92wjw4H3nj+tmOz0nuPctU80VUe/ToYbsakpZhWh1pzSzVFVAJZz9pcA3056akAxUyj3Ie7iuuuMIOL0bBpKASkzV8+PBgqy9MiErXrl3tMgURwUD43LAGCq4U3hEjRtiCSkHZt2+fFQG+iZTCPGDAABuSwDLnZ0RxF1lHeuwPnJe8IGIiAkuXLjXbt2+3+xBKIukgtOSNkA3uzcKFCxuO6du3b4NQheH6J0+e3JAO90LEk2vg98QTTzS7d++2y1yn5E9eBAil3KsoyA//p1KFqBJCxsuE/KuQpQcVMo9SH26qINOmTbNWA7FJiBkFsl27dua5555rZlkR2nHTTTdZkZACLL8g1lUYrL5ly5ZZMUJwjjvuOLNkyRIrkFhfIhwULsQHoeQcXA/p33LLLTZ+LcoCFET8yOOECROsOJNG9+7dzebNm4O9jF3mnFhZiJSIMfOAteQKOfcWwRo5cqTN78UXX2x+8Ytf2HvmpguzZs2y6UQJBKIsY1uKqJZCJYSMNLAcNfwiPaiPrAzmzJljfynMVM0QGoQMgQtH1PPgIxY8/GxDYCiUBK5CoeqSCAUwyC8WGmm46xEyCjvpU4VjmXOCLGNNUC1CGBAMCiUCwjoEEGtPLMNcIFQiBATQMs95ufaweEvVkOsjX2Ipskx+uGdYgIDQcn9YJp/kbfr06TZfpEM+yxGxSsH/zX0BKcmTqJC93XK+5RaHAkxBBEQCATj22GNtpPwbb7zRMNI4Fgz7UgApnBQAvm3EqjrttNMaROGMM85o9g3fPffcY4UI6+7SSy81Dz74oF3/0UcfNRQkN+qddMgLwoqoUI3Dh3XyySdbUcBxfu+995q9e/fa46nGcQxpkBeqnY8++qjdRpU2Fwg1AiPVXuY5z+OPP26+9KUvNXHQY41x/Rs2bDCbNm0y//iP/2gefvhhe69IB2vxnHPOaXCec27ETO5Lp06d7DqsRKzSShDHmZ8PvoiI8+mXUj0SFbIXdgQzCcMbVkQpLviWKFyAVbRy5UpbIH/2s59Zi4OCjY+oT58+DZ83CTjrEaVrrrnGCgzTggULTM+ePYM9fKiGYcHg2F+xYoUZOHCgXX/ggQfaaijndYUsDJ89MTo4x5GnCy64wK5DtATW47NC3Kj+ITpYe+QfxGIUuFekMXr0aHsdvXr1MlOnTrV57N+/v7Xs3Ovg+seMGWMtMITzsssus0KAcHfu3Nmmxf5uOAN54tqwYm+//XabH/ZnndyvUiEtrrccNGg6fSQmZG0/G8xkFCwfCi5gMVDoeEtjDa1bt85aRIhjlB8FSwMfE1YahRMLjeOZ8sF5EBLSp0ByLBZPGM5LdQyxYz8gbc6H0JCOwH7kh3U46qkuMy/fabr7CggN18r5gTSZ5xfxRrDEuqRFEuEhH5yLvHFvqIoyj9AJUp2kKoq/kWon6bAvVXfS5lhEsRy4h0ptkZiQHZkiIaOwhS2PYsCngxj06NGjoSqF0OUCZ/ngwYNtgaQ6JwU7l/MYkUAEAB8UAkDLHmLDeSjwiAtVOqwq0ic/CAJ+J3xhEnLh+phIBzg/kCYWoIgS26OqUOSV8/GLtemKHkLuOvtB0kdAEG2p+pI/GkkEqU7KxDIWG/vKMvP57m0c9BOj2iMxIUtbx4rlOJEpYByPECA4VDkprK7VAlgX4peiMDLRIikthi4IBb4nwh3YH4GkEItoIjQsi6DwS/WWlkHSxTFO2ARWGY0D4oR384PgRrVkuvu4FhnnJG3OiwBxTmLOWOZ6uQfMM0n1i7Q4BvHgPknfZ9wb1iHC1aZci66Q5axUn8SELG0dK5bzcGJpUKgRD6pQUuWkqkbVSeKpqDYhHBR01iF6CAJWDZYUgub6gNgPBzfHIBSkzzrEA4EhDYSAie2zZ8+2v2zDuiMdBAM/FudCBF0LKFfgK4LMfpyLa+DagPQQUa6FvIZFMKrKxrHkh19EHFGlCgk0AGCVIeaIqgvXxDlYX8mqIPlwhboUynnpKS0EcWRls3fZ/v3PeEkVMe3+ldl/arfobZFTC+JZMvu9AhosFQfHvfDCCw2/YdatW2cnrwDv/+lPf7p/wIABdvIssGAPH7ZPmzbNbtu9e3ew1odtw4YNa5L+5s2b7Tk5Juq8rOe6BPb3LMVgqTnsn4+nn37apsG55syZ0yyPUevAvU62f/3rX4+8vig43wMPPBAsVYYlS5YUvNZCyL1X0kNiAbGMa9nnKmM2Lw1WFKIFA2LxBWFthKt3cRGrIx/sQ0tgKS1ecdJX4kFVG2uvnKh8LGEaI0p9XpTKk5yP7L1gJgWUW9WIIzLsU2qzvYpY5aDqLY0TpUIaSrpITMjgsE8HMwmDxaNN8vUBL61y/9c8L0q6SKxqSatl328Ys/4nwYpCtGDVkqoCjnRa1WhZdC2nQtU6CgYOdQoHb2oaDQhCxalNSIc432lZDCMhH66FwLq4FgPnkryJlSCFjPXkjV+qtHxpQLq02Mk+tBqSb1nOdd64eZJYtSjc+xg1T7Q9oRYsk2/S4Ze++eUrCWBfCZ+Q1kdJC5jnOHAtJ/f/evnlpX90DlRNaaTQqmV6SEzIoPvQdPjICCsg4BLEjyUFzP11cQtPLkQA5JfQAwomaUmBp9AR6Y74SZpyLjcvko845y0WWkw3b97cILYSbIsQ8Mu5ieJ3B/uQXwSIz4vCAsZ2uY7wPISXs0S5PlWl8iQmZHxn2euydAhZvRPu4ULJjwpZ+kjMR3Z49l7EiqKkFI3sV5Qi0Yah9JFoq6WiZJEs+vVqncSELG2fKNUjfGROCxyNEfh8FCWraNWyjuFbSnrKoHWSEBQlHmqRpY/EhCzot09JEEI7iK+it1bCQpR4IGThj9yVZElMyHbtDWaURKG3WETshBNOCNYocVDhTxeJCVnXY4MZJVGwLoiLkp5klXi4Xw0oyaM+sjoHPxmfWKmQFYd8maCkg8SETFst0wHdc/NpUr5BcZXmIP5KekhMyJR0gIBpgGfxqAWbLlTIFHP66acHc0pcZLg8JR0k2vtFt0HGbLk/WCiEfjReMuGuiejRgqoRvXHQqwX9+bv977s9Xwi00tH7BetoIMBHxO9BBx1kx9akax23u58OHTrEHj9S0goTXs+yTOQFMWE7k+SVXkRkAF3yA24XRFif9NSBb7AcGGegUgMGK+Wj3fh40I1PeHxIqg5RfYgVA4WLPrOkIImgUBApUNKvlhREKZRs5zhXHFgn+0bBdjk21z5xkbxxbhE0BtBFsFh2z0FfYQyewj6ynn24VkQFys1PFIgwgiX3xe2/LNd52Zd9uLZye66g6yNGqVLSQaIdK/a4JNt99octHSX9VKoLHhWydKGtlgG8qYtFRax+0bEt04U6+wNaovqj1C6u301JHhWyALdfeEVRsoUKWUA9N6fHrSbR5Y84111YF7VeUaqFClnGQYToggeRwZEtkyxPmTLFjg6VT2iI7s/lIyQ0Q7YxcpCIlpxj+vTppm/fvnZbPaFBxOkiUSF77c/BTAoIjwKUFQglIFQEHx+DiAgIzeLFi83YsWPN7Nmzm/gAw6JGuAST4IoaISgsL13a2LxMix0jdiOiEyZMsB00ljO8WjUhpIR7Uy7u/VKSRy2ygKxWjQjsRITlkxmWmVjm8yMKHONFuhDMiaU1d+5cG4qAUPErExaaez9IZ9WqVXZ++fLlNnSB7awvt+W22vcdQZdAWaV2UCELyKqQ5aJQKyyW2vjx460lRfCtDFrLdOaZZzY5Hgumf//+DfeIqizbsfhEDLt161aSpVMon5VGgpCV2iJRITvkU8FMCuBTm6xBQC7VOoTkkUcesesQFqqBmzZtssLCNnqAxZcl8HmPS6FQAqLoESrO0atXL+tz437xixhirW3ZsqXsz36qBZ9llQuDEivpIVEh25eiZ4HPb7IG1bqePXtaK4rq47Bhw6ywDB061Pb4irCwbfv27Wbq1KnBUc0LcriqRdXShc9+fvjDH1qrjM+RaECgIGPJQZYKNddaiVAb7nclfG1KZdCqZUDWq5YUKkQtDuFPa8IWGZaWC1ad+MVgxowZ9qNscXhnKTgUf6IGs9YeiQpZWnqJzbrzF4EhFAKLTCjG91To+vGnQZ8+fex58JFlpRoZptyOAJR0kqiQHdk6mEkBWW1Op8WRqt7kyZObtCAW8y1gPguF6iMtlVhl7Mf5EDIRt6xB/FclYsC05TNdJCpkxx4VzCQM3b5k0Ue2Z88e853vfMfcfPPNzbqq5ppw0sdhwIABwVxz6KfMbdHcuHGjufbaa5tYfFmyzmi1pPufctHqabpIVMg2PRfMJAzO7CwKGQ5ngl2jYrlw+DPFwW0IKATnC8elldslTjXBGtu3b1+wVDpqkaWLRIXs6KblITGoVmp8UX2As78S/+tqx78p+UlUyNLSJ5k+lPVDrQU+Kz7a1XVAp06dmvRbXwwUDsRQfqWbZ1kGnO/4VVxHsxQq1ktMlsA2gk7j9nufC9Ihzkuqg5InWU8X1rJO8khepM971mPB0Ac/+2O9Rg2FJlWtYnxHcl4hvEx+sKBYL9tobCA/0tW15IXzkzeqjbgK2EfyxHEEAbOeeXx65fa3zydefAGR1dbbWkMHHwmg5Y+CQLAkXfpQgHjoKUBS4EEKGuvZD/8U8yDbioHChuiRFiIgBRLw24l4uLCeifUUbPLKL8tuoQc3v1H543yDBw+O1W2zO44BYkeaCAQBtrJe9hGhCYOYcAx5YZJ7l+teprU7cVpxgQYQJXkSFbKuA43Z+mCwUAgdRanFoNeMzZs3B0tKHFTI0kWiPrLDizdgFCUViOWopINEhSwtkf2KUixR1XQlORIVMiUdqHVRPMV8OaG0PCpkdQyOdL6dpCWVxgItnPFRiyxdNBMyHmilPqA1cNasWTaMgG81af1UlCzSTMjCTf0tyZtvBTNKYhAiQcwV320q8almOVEKk2jVslW8b5qVFgSrjKplFr81TRL1K6aLRIUsLZ8o1TMEsFIotVpZHOojSxeJCpmGXyQP/rE1a9Y0jMKkKFkkUSFTkodvBfmkSL8ZLB6tXqaHxKuW25p/f6xUGXxkWlUqDkRM71l6SNwi69K00wclAfCPqUVWHCpi6UKrlooZMWJEMJcdCOYVCOSVYF7CSLCWJB6SX3fYNnffctGqZXpIvD+ydT+O+fF4FbrxkX6u3nqreYAb3d3wFmafUqBAEeIQ7hcMKHx0E0QBC3cfRJ9kLOPHki5y6BuMfsrIk/RxRr6kyxtZHxc5bxgpqJJPlpmkuyCuieNkPX2DSb9qdNcjXUrLPXP7OZMui6LyyXo5B13+EOvGvOSDX+4N95I8sCzb4lJubx/a+0W6UCELoGPFmTNnFiUACAriREGl8ElhQnwoaIKIBNulQLoF0yXX+lyIOIQhP5yXgi5iwLzbZxn9oEmfYXJerkdGXZegz3x5Smt/YbngWhiAWIWsttAeYgO0T676oJJCRlpZHRav1kjcR/a2uhmUKoJluXXr1mCpPLBwlXSQqJB1aGvMk1uChYRxHcJKbVOM+yAX+DWj/IpKMiQqZK0OT08vsfiUlPrAHQCmVPTb1HSRqJDxiVJaqpZZ682Alsa4VaS5c+dGVoOwQvHzCGvXrg3mmsK5rrjiiqKrZG7aaaKYxpRc0MBTCUFUKoPGkQVkTcgoSOPGjQuWmoPwiJCsXLnSFl4E6f7777dDmRFugsC54oWwTZ8+3c7TTxnT+PHjbWuufMok0CFjz549rdObtEiTeTmOtLt165ZKP1IlhIx7q1XLFEGrZdnsXbZ//zNeUkVOp3Yz+9f9OHpbs6mF8aqWwVx68cQrmNu/3xOV/SNGjAiW/OV169YFS/vtNvZftGjR/l69eu3fsGHDfk/49l9++eV2Pop33nlnvydYdp79du7caeej2Lx5s90nH4MHDw7m0kUl/td9+vSx90BJB2qRBVTiLd2SYAEMGTLELF682Fo+nhhZC4l5pnnz5pklS5YEe/v7Y2USY0aQL5YRVhJI0Cq41T/ugRuW4ImgTRtrCwuP3yjEEuOX/dLecFIJZz/XqJ91pYfEWy3TQtqrCYgM0f/Dhw+3QZgDBgywBYl5JuYJ0BUQsVWrVpkTTzzR/OEPfzAbN25sELLbbrvNViGZ/u7v/q5BeAhuXb9+vZ0HRl4fNmyYGTVqlHniiSdMv379gi3N4TzkAxBOkMj+WkNbLNNHZYTs4HbBTHF8+NeYrZaHTQxmWg78R2lHIu7BnRdEQAALrHPnzvYLg/fee8+K0UUXXWS3jRkzxm6DP/7xj1YEsahuuukmK5BYaTj28YPxVQAi2Lp1a9OlSxd7DLiWHMhI7MCo4cAI5GmkXCc9n4e5Vq2SPJURsoOKfzDGz/ashtb+/KwF/m9OPvnZYKblyELHglhOVO+wrKj2ITQIEM52nPbhb0S7du1qj+GbRPZfvny5XU9DQbgqjfWFtderVy+7DYsDgeN8DEwyf/78YE8f9nHFjPPwMnCd+2l09FcC7rtWK9NFZYTsMO9NfeBpwUI83nnPKwyfNmbiHGNO7RaszMXh3YOZ+oaqG5/E0JJIjxX07ooAzZgxw64fOnRosKeP68dhH4SHCYskbFEJiCEChLAjVoge56WKiWi6iBhKuvjj+JVqV1gs00Kua48LLw3uvZIeKucjazUymIlHW8/IOswTsre8Z+r4Y4OVufhMywtZ1IfXaQPREtzCiPBQsNyqHz4yChxWloDYsW8+/w5+No7r3bu3FUzxwa1bt8468wXEUIKIBw8ebNMmD6tXr24icGmkXIHFIlMhSxeVE7LP9g5m4oEV9vx/G7PnVWOO9nu2iabNbV7V1e+hQWkEoZKqW1QMHCKCH4dCh8ARP0YVVApguDAjUkz0ZEGrHtVErDix6FhPiyZWnggUff1TzaXKKrFkWG1MNCS4cWdpAiEvVWRpNUbklXRROSGjeonoxOSEv/X06ZPGfD6fRlFdbddoUbQkUWKQZhAi+vzKBc58HPA43qkW0l0PwiNWHYX56aeftvNAi+WcOXOsLww/2X333WctrgMOOKBh+uIXv2hbNUmTRgBEEasNawxB45f0maZOnZrae8q1lmqVLViwwFxyySXBkpIWKtONj/DRe8b8178Z88GKYEV+6Manl1drnD0hWBHm6F8b0/qMYKFlIQp9y5aUfMEeEywoCXkoBNVF/F5SrcTiojUy7FeLC9Yg1lk+6yStVTD6ntuxY0ewFB/E+uGHH7bVZyVdVFbI4P1dxrw02BO1TcGK3CBkw/oZMz7Kvdb2HmPa++EC1SCLQqaURin/65EjR5pNmzaZX//615mz3uuBylUthUM6GvO3y73fy4IVuTmmvTGnRkU9HLW2qiIG5TqAldqGBg1i61TE0knlLTKBaubrngmep+fYK75lzByvWtkQFEvg61HX+GJYZeghFh8Sfie362aqUDy8OIcRO3ESsx4/Ef4inOM41tlGuIL0qe+uy0eh7qI5F+d2xdZ1VrOeQkYAKnkC2c42upwhMJbrYFmCf/GhSZfc7mc75LvUVlzO6+ZTCF+D7Ce/3IMXXnjBbsM3J/tx71gmf7SU5rqX7vWGkXPI/xKHPedTaoeKCBkPBt/+RfOh97fdmPf+y7z71h9t7Jjw2O+MOeWEz5rDW3/BvPZ2G3Nk28bwARd5SEEeVB5KWtTckIRyoOogrWzy4OeDwkWf9xLFzv4cR0GRfu+l4LCNiU9b2BYV/iDndK+VtEXgou5BFFLoXYj4R+QQMMkL6SF6En1PXoF8u1H6gpyT4ySvQB65D5KmrEcoZL1LLtE+7rjjzK5du+y8iBbHcv/kPkoeOQ+NF+Rf0pfzyz1jXpB9JH/8avhEbVERIQs/nLIsbz3mefNTQN5+bas5/NNBjZaWTkVRlDJpuaqloihKlai8s19RFKXKqJApSkK4fjylPLRqqShK5lGLTFGUzKNCpihK5lEhUxQl86iQKYqSeVTIFEXJPCpkiqJkHhUyRVEyT23GkdHzxvt/CBYUpc455AvGHOj01lCD1I6QvbHRmDfXG/P2A7E6dVSUuoJu4w8/35hWPavW63I1yb6Q/c/TxuyeGrt7bUWpew4+z5gO0435zMnBiuyTXSGj+rhngTH7xgQrFEUpCgYLaj+qJqqd2RQyROylq415/8fBCkVRSoIu6f/29syLWTZbLbHEVMSqxrt+79klU+7xxfLynmDGYc9r1c9Huaz9jTFbtwcLMXkyGFMl17W+9kYwI1COKE8ZJ3tChk8sqE6+/a7/gMZh205//3og6r4sXe2PkeCyM6LAR9HjEmMuuSlYKIE7fm7MxDnBQh7c/xEFklG23ozoWp997llhzPQ7ghUh/vlKY1aFel6/8z7/Ogoxd6Ex318cLDic5Rku6zcHCzHgWtz95bpYT95dyCv5C3NiF2NGTGr6f4p63llHvskj94zz/vt0Y87zign3iHvP7/AbjPmXCRHlgPJEucow2atabh3Y4NjnYR8y3phJXjX/bSIu/uKPXn7ml+zmJty5zJjJ/27MoLODFSmFN+bO3cFCDHhjz/ReqGt+2DhiO/cF0dpwtzGHBmP4UlBIm3sl8OCPGuw94OcGKyLgmG7nG/OMd3z70ABCnIdCONUTjnzcusjPx+UXBCtyQB4Zx2HhLN+i6PsNr1D+pNEqmXmXMW3bGPPqPmPafc6YLsdEp9nzUv84F671jFOMmfHNYEUOeJ72vWnMoyGDn7yM/jdj+vcIVgSQz03/z3v2PvCvkXvCNYzob8w3vevg3nAPF/3CmLHDvWvZYcxDjxnz63uMObJ1kIgH6Z9+ojHXft3bd5W/jrTvf8SYrsf6o42xPMv7X/M/HDvC34dl1vPMHNOh8fpGegLIPozoLyz28rDBy9v8G4MVLjQAdH0wWMge2bLICLFwWicP86r1R37Wf5gZG1MKLctM/GNlnn/o0X/jb4+CwsIDyNuMh4d/Ostx4OGd8gP/mHKRwsDDCfIbxcjJ/kO+cGawwoHrlfshHP/FYCbgLe/NzPEC5+LtPX62L4RMWDEUCESGZd74bEecqPogbtwvoVnVxSOcDyFqX/JN+sD/C+uBcz4fiNncib7QMagz/1cX8sh0+RD/Hsr/g/Os8/6vrojn+l/xP5/vWJ9y/1/9szFHNB1HxSLXhihxT9p6z6OcR4R2hPeiYD/mh/fz17siBggQeYcep/r78v/iuAkX+cv8H15Z1yhiwLk4FoF3RSuKd7yXPUMwRkK5onxllGxZZDu9J/hNr/QG4AsZ7L1BNy/1H/hzvX+oCNbLfzJmnmduz/EefESOQsgDnuuf3amP/9DywCKQYt1sud//zQXpvus9IDOvbjymGpBXRIZrD4Moc1+wACjEh3zKe2Md4B8jBY/1dz9gzIrbct8TEejVnrUnsNz7K9FWL8j96Hy0MR/+1V+HlQycB2unTSu/uoRouPeXgix55H+w/Ff+uZhHcBEKRCwX/A9FREiHvHJ/sIaw1ju2858LCjRC9rt7fVERuG+IJmKJ5cR+rOP6udcMXdize7BzBO4zxr2jKnfXVD8vk2/3awSsf3abf9+BZff+cw/6nOHdA++asQ55SfFcce28mHPVKBB/7hWWWa/TvLz+rPnzTtpcF9cXSSvvZMc0jkomo1dlgWxZZAS7OmCNCfKPoxDwxqL6sXyeL2KFwKKQt93+Z7zTPO6LwOCvBjtEwMPJQw8UrkqLGCJNQeAB5gFkovohViLnzwX34Hiv4PMWp2AvecgXHuatdeVVs3no84kYBdgWpJBwkA73i4LDPlGwD1UqLAUmzsXE+bGk+MVKiRJDrouCLNs6fN4XMcQsTNhiFutcJo5jHYWb83LtFGKeE7a5IgZrPIOE/HKsFHY3j0sCP2OUJQkIuAvjtfK/eE1ejt4Llv/LEYcFO3iQFv9XaaBAaBF5qobkgRcrYkc+xn2vqfXLevLD/2L5//GFH/DDcU725fmRZ4i08xIqX4sWeQdmhOwIGSEXoYh9KcwUqN2v+r4e1vHPDb+9wg+ZC/4H11wHHgIKXy7G3eJbgfOuDVZUGHmAyZcUTNaJ8IhlFUVY5HiwQarLFCYKBmlx78KCRJURf1RvT1CwJLBscCbjj0EUqB5xPELedaC/vlhyCTH5Q1C4v1QnyftiT4iZZxuFkvzgyMbSIq+QKz32D/9vc0H6VA0FluXlCMzzcsNnKFVTzisvGvLIS4L7Qr6oinKPuVdYd8wjoLtf8Y8FnjGqkIgQbg2qnPzfOSfPIHlgGcHjpYJgCaSHv0tEl2ojvjn8eLwsEGWuXZ4h1uV7pm35+tCzAALGjh0bzKWf7AhZxLeTVFNg7+uNDsyzv+w/EBcN8JcFd2DgMGFrCoHC/Hffxi5s5+Ea2td3zNIiJGJRST7tVQld9nhiLYUqGBe4Gfi4vnWnMc+91NhadaD3X6bV8kXvFm56zpgLzvHXM53vPau0jAHXxbrHn220xBD5c073f8842bvu5/39eEn8l3ft3HcKSD5oiAkj1c4w5/yTX+ioDnf+gn9eCirWzLFH+YWScx94oH9uKZjcF/IlyDLPAf8bhDEf7EueuEeyvGtv02eDdZzvJzf79xg4zz/+gy8qx3UyZkBPvzrLfm+85d93hJljEbv1TxrT+jP+sQIvhn5nGvPTFcZc6FWPmafFEiEiD6zjBcL/7kdTgoMceBa5X5QHqsA8//zvaeBA8HnZMH/uaGN+ttLfnpMPYoYBpIxsVS1DSGEWvwWWwSNPGPPArcYMu943ufmn8TbLZ5GFedirWiKIuWA78ADBiy8b878ublyuBFRFXvIH3m6gfdvGKgjVliioQlGdptAzTxXvI+8+jRnmFYjefsGgQCASvbz7xr2jdRM2Pu2vk1ZI8oDF8cIOv2GAljmqhLQYAo7+sM+IYxA7WjOxKLBMKGD4ZlimMGPNIJZR/xN8WcAxXC9OenH+U1iFN/4nmHHgGAowFjlW2ye8p5vqIy+clzyBwjrLxYLlxlziWVqEeyA63AuEW3Crtlg8374mWPA46ThfyPiftHIGUf+CJ76cn238P+T3ZG9/F9bjN/ztM/49fesd/zkGhEesTf4PUf937isvp1O6+mnxv6LVlel74/z/kSwv/nZ+P18WkBHnXbIjZHzBH4K3Jb4ACgf+JCyort5bcZ73wPK2Zn7aj3zfAg9DrupHGN6gg78WLEQgzmt8TFgPWC+cm8JTKaiChKHaE+caqFZTDaVawkTB4DjuC295qjkSm8R9EisPK8J9yNlPWgupDmEVIAZUO3PBMeSTAokV5bbOsUxB49qo3kb5msgnQodg8mJAVDd4VgyEW/rC8Dwg3lwT1+nC/ynXi4Z8sA1Lj/8j1UMEmDwIco+EXE53uSaqi7R+cr3Mi1uA42iFDMMzLC8Q7oH8/7kmCXvBOg3DvuSde8u9p9GJl5HAOoF9c/k1G4goZ2nj+ee9N2WI7AgZn1DwBb+DPFw4h3nT8BDywPIA8hZnnrcQQuM2DOSDt/FaT8jy+RIoUAioCw8pD0olQYDEUcuEgLrXket83BcsCH6ZxLk8zquWsczDTIEr9Ga2PhfvXiLqw7zqD/dz2dzGaifnxwJy8zE58M1wP2SikImIyYQ/k7SiwKIb5DS0IEzklxADiBLAQlC4aTUE8uv6wrAMZRtCs3KdLw5ufB1CFAfEnpoBVVnSkf8d5+QXJz4+NLkGRBsLEl8kliPwf0boc+F+uSA+QPkf8GxitZEHygCCzPPMuVnHy8z9fzWB8pWBT5UOPfRQs3btWvPkk8EbziNbVUu6IQlBwRY/Bv9UHgr+0eIAdRHhy8fK9b4g5tsXiweLBtET4qRdDPKgi6NWJrc6luucPKg80CIaCCLwlkfE+GV7OPqdwoswSeEDHOo29OBnfkHgHou48guyL7g+JZeowhOVfyxIWozd/bkG8sb/BfJdt4t7ryjcYuXwfLjWHXmWbZIGlowrGPkgb9wLeUHwf0J8CYPgJcAy8MtLYOuDjedHLHlZcI0CQi7LUfeNAGjg+WM7L93wfvgtKQOkLS94XjCuBd6MiPKVRk499VTTu3dv+ytkS8joS8kh/M+j0GNa8/YkdEBaloqBgkzLTxjebFJgeXCwAqmCCLYAeuevFDxs4RgxHk4RiqgHXKAAU6AoYExucz9vfh5upitublpYKTxUzXjombgettMyS7WHY2jCJ2/cI/IjYQ2VgGsiD7wkyDdWCf8Pa1V4k1jJua4dKxmfKMeyfy54PqIaf0gXi2nCxZ6Ae4JDwDHLpIUAuGIjcAwvT36JN0MsRKTcwFdXPBAg975zrASq8hxxHSLaLhI+wbEcQ0u93HuWo+Ba3W0itpGEyleWyJaQ0SEcn1IE4Ox3rSLgweGf+/+WG7O3sSU5FvJhcVS1EgEgBEH4/n8Y8635vrjR0keLVy6/SSnw4EcVHKwozsf3i7lA7LAoaK2jUGORYXHQgoazmULCPtd5lhbfJeZqcb3lp8Zcf2nj/eAYPqGh5e1LFxbXUpurldLl4/3eA3mA73A/5GC/tY5WQEITaNkTMWBbFDjMaSnkmWAf95zPvOBX6Wi94965fiTgf0+rHo0iOPO5X3zmRAvipTf5xx7xT8YccJI/HeVZWtxP8vSru3xRZ55zS4swE0JMNZN7JctneveQ+y7fTVIdpSGDPHLP75nhrwdp0MK6u22Jn38aIqh+ukLJtQP/70HjfHHFb0weaQThW1laMK+b5z/LzaBcZbjDxQMy960lH7fuOMXO8mai2oP1wENLixEPk1gN/JNp+qdw8FZF4KJESuBt9dTWRl+FC9tAqiDAQ8tDBfnSrSS8TZ970bMavAKB0GEphOG+UP2QbTzANOeDFDiBB56HP2xx0HCBSOOolmvGr8Q9lbgniDp/GNLJG1GeB4SbFjz3WKwWxAi/qMALCCvc/QqB6l7YWpQGGbcxgGdDLGoRhjD8/3k5yC/3KupFA2LxkBb5YsqVLrA/56fFduBZTf8/3Dueb+D/ioWFayOcHtV+nkHyxHOZq1U7J52eynRHi9kTMtjlvVL2jbEPAP9oCmchqGYS4JnvgcoSPNRSzSwEliTxVLmunYLmFh5gHedwhTsMhS+qChSGwk9ew+eIA1XFrIcLpB46WOx4dbCQTbIpZNqxoqJUhhrpWDGbQgba1bWilId2dZ0idPARRSkOHXwkxehwcIqSGx0OLoNQ7dQBehXFRwfoVRRFST/ZCohVFEWJQIVMUZTMo0KmKErmUSFTFCXzqJApipJ5VMgURck8KmSKomQcY/5/6UAv/FtDto8AAAAASUVORK5CYII=;imageBorder=default;comic=1;treeMoving=0;treeFolding=0;" vertex="1" parent="1">
          <mxGeometry x="-646" y="874" width="306" height="431" as="geometry" />
        </mxCell>
      </root>
    </mxGraphModel>
  </diagram>
</mxfile>
